<svg id="svg1349" xmlns="http://www.w3.org/2000/svg" xmlns:xlink="http://www.w3.org/1999/xlink" viewBox="0 0 104.01 88.07"><defs><style>.cls-1,.cls-7{fill:none;}.cls-2{fill:#fff;stroke:#fff;}.cls-10,.cls-11,.cls-12,.cls-13,.cls-14,.cls-15,.cls-2,.cls-7,.cls-8,.cls-9{stroke-miterlimit:10;}.cls-3{fill:#144076;}.cls-4{fill:#3eb0e3;}.cls-5{clip-path:url(#clip-path);}.cls-6{fill:#2fa8e0;}.cls-7{stroke:#144076;stroke-width:0.5px;}.cls-10,.cls-11,.cls-12,.cls-13,.cls-14,.cls-8,.cls-9{stroke:#3eb0e3;}.cls-10,.cls-11,.cls-12,.cls-13,.cls-14,.cls-15,.cls-8,.cls-9{stroke-width:0.25px;}.cls-8{fill:url(#Dégradé_sans_nom_11);}.cls-9{fill:url(#Dégradé_sans_nom_11-2);}.cls-10{fill:url(#Dégradé_sans_nom_11-3);}.cls-11{fill:url(#Dégradé_sans_nom_11-4);}.cls-12{fill:url(#Dégradé_sans_nom_11-5);}.cls-13{fill:url(#Dégradé_sans_nom_11-6);}.cls-14{fill:url(#Dégradé_sans_nom_11-7);}.cls-15{fill:#134074;stroke:#134074;}</style><clipPath id="clip-path"><ellipse class="cls-1" cx="64.79" cy="55.2" rx="39.87" ry="19" transform="translate(-8.86 12.53) rotate(-10.34)"/></clipPath><radialGradient id="Dégradé_sans_nom_11" cx="40.44" cy="15" r="9.15" gradientUnits="userSpaceOnUse"><stop offset="0" stop-color="#fff"/><stop offset="0.01" stop-color="#fdfeff"/><stop offset="0.14" stop-color="#cbe9f7"/><stop offset="0.28" stop-color="#a0d8f1"/><stop offset="0.42" stop-color="#7ec9ec"/><stop offset="0.56" stop-color="#63bee8"/><stop offset="0.7" stop-color="#4fb6e5"/><stop offset="0.85" stop-color="#44b2e4"/><stop offset="1" stop-color="#40b0e3"/></radialGradient><radialGradient id="Dégradé_sans_nom_11-2" cx="21.21" cy="24.72" r="8.54" xlink:href="#Dégradé_sans_nom_11"/><radialGradient id="Dégradé_sans_nom_11-3" cx="16.03" cy="43.5" r="7.43" xlink:href="#Dégradé_sans_nom_11"/><radialGradient id="Dégradé_sans_nom_11-4" cx="25.05" cy="58.19" r="5.7" xlink:href="#Dégradé_sans_nom_11"/><radialGradient id="Dégradé_sans_nom_11-5" cx="41.51" cy="63.05" r="4.11" xlink:href="#Dégradé_sans_nom_11"/><radialGradient id="Dégradé_sans_nom_11-6" cx="53.26" cy="60.15" r="3.43" xlink:href="#Dégradé_sans_nom_11"/><radialGradient id="Dégradé_sans_nom_11-7" cx="62.15" cy="56.71" r="2.26" xlink:href="#Dégradé_sans_nom_11"/></defs><rect class="cls-2" width="104.01" height="87.84"/><path class="cls-3" d="M45.39,48.83c0,1.29,0,1.49,1.11,1.88a1,1,0,0,1,.72.93c0,1-1.08,1.08-1.21,1.08H36.74c-.13,0-1.21-.07-1.21-1.08a1,1,0,0,1,.72-.93c1.15-.39,1.12-.59,1.12-1.88V30.65c0-1.28,0-1.49-1.12-1.87a1,1,0,0,1-.72-.94c0-1,1.08-1.07,1.21-1.07H46c.13,0,1.21.07,1.21,1.07a1,1,0,0,1-.72.94c-1.15.38-1.11.59-1.11,1.87Z"/><path class="cls-3" d="M62.15,53.24c-2.59,0-4.59,0-6.85-1.36C52.36,50.15,52,48.83,52,47.1V30.65c0-1.28,0-1.49-1.12-1.87a1,1,0,0,1-.72-.94c0-1,1.08-1.07,1.21-1.07h9.27c.13,0,1.21.07,1.21,1.07a1,1,0,0,1-.72.94C60,29.16,60,29.37,60,30.65V47.34c0,.35-.29,3.09,2.17,3.85Zm5.85-21c-.52-4.34-2.61-3-2.61-4.48,0-1.07,1.34-1,1.7-1h3.73c.36,0,1.7-.07,1.7,1,0,1.5-2.09.14-2.62,4.48V45.33c-.26,5.72-4.15,7.8-6.28,7.84V51.12c3-1,4.19-2.77,4.38-5.86Z"/><path class="cls-3" d="M81.65,35.55,78.58,47.41c-.53,2.12-.07,2.71,1,3.23.52.24,1,.45,1,1.14,0,1-1,.94-1.7.94H75.14c-.65,0-1.83,0-1.83-1,0-.84.55-.8,1.27-1.18s1.58-1.18,2.2-3.65l3.93-15.22h.09ZM85.16,46H80.38l.46-2h4L81.52,28.64,82,26.77h7.23l4.91,21.92c.2,1,.23,1.63,1.15,2.05.46.21.82.45.82,1.08,0,.93-1.18.9-1.8.9H86.11c-.66,0-1.61-.07-1.61-1a1,1,0,0,1,.62-1c.86-.52,1-.76.69-2.11Z"/><path class="cls-4" d="M45,48.83c0,1.29,0,1.49,1.11,1.88a.94.94,0,0,1,.72.93c0,1-1.08,1.08-1.21,1.08H36.35c-.13,0-1.21-.07-1.21-1.08a.94.94,0,0,1,.72-.93C37,50.32,37,50.12,37,48.83V30.65c0-1.28,0-1.49-1.11-1.87a1,1,0,0,1-.72-.94c0-1,1.08-1.07,1.21-1.07h9.26c.13,0,1.21.07,1.21,1.07a1,1,0,0,1-.72.94C45,29.16,45,29.37,45,30.65Z"/><path class="cls-4" d="M61.75,53.24c-2.58,0-4.58,0-6.84-1.36-2.95-1.73-3.34-3.05-3.34-4.78V30.65c0-1.28,0-1.49-1.11-1.87a1,1,0,0,1-.72-.94c0-1,1.08-1.07,1.21-1.07h9.26c.13,0,1.21.07,1.21,1.07a1,1,0,0,1-.72.94c-1.14.38-1.11.59-1.11,1.87V47.34c0,.35-.29,3.09,2.16,3.85Zm5.86-21c-.52-4.34-2.62-3-2.62-4.48,0-1.07,1.34-1,1.7-1h3.74c.36,0,1.7-.07,1.7,1,0,1.5-2.1.14-2.62,4.48V45.33c-.26,5.72-4.16,7.8-6.29,7.84V51.12c3-1,4.19-2.77,4.39-5.86Z"/><path class="cls-4" d="M81.26,35.55,78.18,47.41c-.52,2.12-.06,2.71,1,3.23.53.24,1,.45,1,1.14,0,1-1,.94-1.7.94H74.75c-.66,0-1.84,0-1.84-1,0-.84.56-.8,1.28-1.18s1.57-1.18,2.19-3.65l3.93-15.22h.1ZM84.76,46H80l.46-2h4L81.13,28.64l.43-1.87h7.23L93.7,48.69c.2,1,.23,1.63,1.15,2.05a1.11,1.11,0,0,1,.81,1.08c0,.93-1.17.9-1.8.9H85.71c-.65,0-1.6-.07-1.6-1a1,1,0,0,1,.62-1c.85-.52,1-.76.69-2.11Z"/><g class="cls-5"><path class="cls-6" d="M45,48.83c0,1.29,0,1.49,1.11,1.88a.94.94,0,0,1,.72.93c0,1-1.08,1.08-1.21,1.08H36.35c-.13,0-1.21-.07-1.21-1.08a.94.94,0,0,1,.72-.93C37,50.32,37,50.12,37,48.83V30.65c0-1.28,0-1.49-1.11-1.87a1,1,0,0,1-.72-.94c0-1,1.08-1.07,1.21-1.07h9.26c.13,0,1.21.07,1.21,1.07a1,1,0,0,1-.72.94C45,29.16,45,29.37,45,30.65Z"/><path class="cls-6" d="M61.75,53.24c-2.58,0-4.58,0-6.84-1.36-2.95-1.73-3.34-3.05-3.34-4.78V30.65c0-1.28,0-1.49-1.11-1.87a1,1,0,0,1-.72-.94c0-1,1.08-1.07,1.21-1.07h9.26c.13,0,1.21.07,1.21,1.07a1,1,0,0,1-.72.94c-1.14.38-1.11.59-1.11,1.87V47.34c0,.35-.29,3.09,2.16,3.85Zm5.86-21c-.52-4.34-2.62-3-2.62-4.48,0-1.07,1.34-1,1.7-1h3.74c.36,0,1.7-.07,1.7,1,0,1.5-2.1.14-2.62,4.48V45.33c-.26,5.72-4.16,7.8-6.29,7.84V51.12c3-1,4.19-2.77,4.39-5.86Z"/><path class="cls-6" d="M81.26,35.55,78.18,47.41c-.52,2.12-.06,2.71,1,3.23.53.24,1,.45,1,1.14,0,1-1,.94-1.7.94H74.75c-.66,0-1.84,0-1.84-1,0-.84.56-.8,1.28-1.18s1.57-1.18,2.19-3.65l3.93-15.22h.1ZM84.76,46H80l.46-2h4L81.13,28.64l.43-1.87h7.23L93.7,48.69c.2,1,.23,1.63,1.15,2.05a1.11,1.11,0,0,1,.81,1.08c0,.93-1.17.9-1.8.9H85.71c-.65,0-1.6-.07-1.6-1a1,1,0,0,1,.62-1c.85-.52,1-.76.69-2.11Z"/></g><polygon class="cls-7" points="43.34 12.16 49.81 13.14 45.09 17.67 46.16 24.13 40.39 21.05 34.58 24.05 35.73 17.61 31.08 13.01 37.55 12.12 40.49 6.27 43.34 12.16"/><polygon class="cls-7" points="23.91 22.08 29.95 23.03 25.57 27.23 26.59 33.24 21.19 30.34 15.78 33.11 16.82 27.13 12.46 22.83 18.51 22.02 21.22 16.59 23.91 22.08"/><polygon class="cls-7" points="18.38 41.25 23.66 42.16 19.9 45.72 20.88 50.93 16.13 48.35 11.45 50.66 12.27 45.51 8.4 41.73 13.66 41.12 15.95 36.47 18.38 41.25"/><polygon class="cls-7" points="26.86 56.48 30.88 57.07 27.93 59.92 28.57 63.95 24.99 62.04 21.36 63.94 22.1 59.92 19.22 57.06 23.26 56.48 25.11 52.82 26.86 56.48"/><polygon class="cls-7" points="42.81 61.82 45.68 62.2 43.53 64.3 43.93 67.2 41.39 65.88 38.77 67.3 39.36 64.37 37.34 62.35 40.23 61.87 41.6 59.2 42.81 61.82"/><polygon class="cls-7" points="54.35 59.2 56.78 59.58 55.02 61.27 55.42 63.69 53.25 62.53 51.08 63.64 51.5 61.23 49.75 59.51 52.18 59.18 53.27 57 54.35 59.2"/><polygon class="cls-7" points="62.86 56.15 64.47 56.42 63.32 57.51 63.62 59.09 62.17 58.3 60.75 59.01 61 57.44 59.82 56.29 61.42 56.11 62.12 54.69 62.86 56.15"/><polygon class="cls-8" points="43.34 11.96 49.81 12.94 45.09 17.48 46.16 23.93 40.39 20.85 34.58 23.85 35.73 17.41 31.08 12.82 37.55 11.92 40.49 6.08 43.34 11.96"/><polygon class="cls-9" points="23.91 21.89 29.95 22.83 25.57 27.03 26.59 33.04 21.19 30.15 15.78 32.92 16.82 26.93 12.46 22.63 18.51 21.82 21.22 16.4 23.91 21.89"/><polygon class="cls-10" points="18.38 41.06 23.66 41.96 19.9 45.52 20.88 50.73 16.13 48.15 11.45 50.47 12.27 45.31 8.4 41.53 13.66 40.92 15.95 36.27 18.38 41.06"/><polygon class="cls-11" points="26.86 56.28 30.88 56.88 27.93 59.73 28.57 63.75 24.99 61.85 21.36 63.74 22.1 59.72 19.22 56.87 23.26 56.28 25.11 52.62 26.86 56.28"/><polygon class="cls-12" points="42.81 61.63 45.68 62 43.53 64.1 43.93 67.01 41.39 65.68 38.77 67.1 39.36 64.18 37.34 62.15 40.23 61.67 41.6 59 42.81 61.63"/><polygon class="cls-13" points="54.35 59.01 56.78 59.38 55.02 61.07 55.42 63.49 53.25 62.33 51.08 63.45 51.5 61.04 49.75 59.31 52.18 58.98 53.27 56.8 54.35 59.01"/><polygon class="cls-14" points="62.86 55.97 64.47 56.24 63.32 57.33 63.62 58.91 62.17 58.13 60.75 58.83 61 57.26 59.82 56.11 61.42 55.93 62.12 54.51 62.86 55.97"/><path class="cls-15" d="M7.92,81.26V75.48h.9v5.78Z"/><path class="cls-15" d="M12.63,81.26h-.86V79.12a5.05,5.05,0,0,0,0-.86.53.53,0,0,0-.18-.32.44.44,0,0,0-.3-.12.58.58,0,0,0-.39.15.78.78,0,0,0-.25.41,4.92,4.92,0,0,0-.07,1v1.9H9.67V77.07h.8v.61a1.66,1.66,0,0,1,.48-.53,1,1,0,0,1,.59-.18,1,1,0,0,1,.63.21,1.14,1.14,0,0,1,.36.53,3.76,3.76,0,0,1,.1,1Z"/><path class="cls-15" d="M13.2,80.07l.86-.17q.11.66.69.66a.68.68,0,0,0,.46-.13.4.4,0,0,0,.15-.33.28.28,0,0,0-.07-.21.59.59,0,0,0-.28-.14,3.7,3.7,0,0,1-1.34-.57,1.18,1.18,0,0,1-.35-.92,1.22,1.22,0,0,1,.35-.93,1.34,1.34,0,0,1,1-.36,1.5,1.5,0,0,1,1,.27,1.42,1.42,0,0,1,.46.84l-.8.2a.58.58,0,0,0-.61-.51.71.71,0,0,0-.45.1.3.3,0,0,0-.14.25.28.28,0,0,0,.12.23,3.39,3.39,0,0,0,.77.28,2.1,2.1,0,0,1,1,.52,1.25,1.25,0,0,1,.26.81,1.36,1.36,0,0,1-.4,1,1.43,1.43,0,0,1-1.08.4,1.57,1.57,0,0,1-1-.33A1.61,1.61,0,0,1,13.2,80.07Z"/><path class="cls-15" d="M18.45,77.07V78h-.58v1.69a3.39,3.39,0,0,0,0,.63.2.2,0,0,0,.21.16.92.92,0,0,0,.34-.11l.07.86a1.33,1.33,0,0,1-.67.17.77.77,0,0,1-.52-.17.88.88,0,0,1-.27-.47,6,6,0,0,1,0-.94V78h-.39v-.89H17v-.83l.86-.65v1.48Z"/><path class="cls-15" d="M19.05,76.5v-1h.86v1Zm0,4.76V77.07h.86v4.19Z"/><path class="cls-15" d="M22.27,77.07V78h-.58v1.69a5.93,5.93,0,0,0,0,.63.21.21,0,0,0,.22.16.92.92,0,0,0,.34-.11l.07.86a1.36,1.36,0,0,1-.67.17.82.82,0,0,1-.53-.17.81.81,0,0,1-.26-.47,6,6,0,0,1-.05-.94V78h-.4v-.89h.4v-.83l.86-.65v1.48Z"/><path class="cls-15" d="M25,81.26v-.63a1.46,1.46,0,0,1-.47.54,1.18,1.18,0,0,1-.61.19,1,1,0,0,1-.57-.18,1.13,1.13,0,0,1-.38-.5,2.92,2.92,0,0,1-.12-1V77.07h.86V79a7.22,7.22,0,0,0,0,1,.56.56,0,0,0,.17.35.47.47,0,0,0,.32.12.57.57,0,0,0,.4-.16.74.74,0,0,0,.24-.41,6.09,6.09,0,0,0,.06-1.1V77.07h.86v4.19Z"/><path class="cls-15" d="M28.17,77.07V78h-.58v1.69a3.93,3.93,0,0,0,0,.63.21.21,0,0,0,.21.16,1,1,0,0,0,.35-.11l.07.86a1.36,1.36,0,0,1-.67.17.74.74,0,0,1-.79-.64,4.93,4.93,0,0,1-.05-.94V78h-.4v-.89h.4v-.83l.86-.65v1.48Z"/><path class="cls-15" d="M30.5,75.48h.9v3.13a6.33,6.33,0,0,0,0,1,1,1,0,0,0,.28.59.84.84,0,0,0,.6.21.81.81,0,0,0,.51-.15.71.71,0,0,0,.27-.41,5.23,5.23,0,0,0,.07-1.12v-3.2h.9v3A8.35,8.35,0,0,1,34,80.2a1.44,1.44,0,0,1-.52.84,1.76,1.76,0,0,1-1.09.32,1.89,1.89,0,0,1-1.09-.27,1.46,1.46,0,0,1-.57-.75,5.84,5.84,0,0,1-.18-1.78Z"/><path class="cls-15" d="M38,81.26H37.1V79.12a5.42,5.42,0,0,0,0-.86.6.6,0,0,0-.19-.32.4.4,0,0,0-.29-.12.6.6,0,0,0-.4.15.83.83,0,0,0-.24.41,4.24,4.24,0,0,0-.07,1v1.9H35V77.07h.8v.61a1.76,1.76,0,0,1,.47-.53,1,1,0,0,1,.59-.18,1,1,0,0,1,.64.21,1.06,1.06,0,0,1,.35.53,3.35,3.35,0,0,1,.1,1Z"/><path class="cls-15" d="M38.83,76.5v-1h.86v1Zm0,4.76V77.07h.86v4.19Z"/><path class="cls-15" d="M41.47,81.26l-1.32-4.19h.9l.61,2.14.18.71.18-.71.62-2.14h.88l-1.29,4.19Z"/><path class="cls-15" d="M45.93,79.93l.85.19a1.75,1.75,0,0,1-.53.93,1.28,1.28,0,0,1-.88.31,1.31,1.31,0,0,1-1.11-.51,2.64,2.64,0,0,1-.46-1.66,2.76,2.76,0,0,1,.46-1.68,1.23,1.23,0,0,1,1-.54,1.27,1.27,0,0,1,1.09.55,3.07,3.07,0,0,1,.46,1.84v.13H44.68a1.24,1.24,0,0,0,.21.77.59.59,0,0,0,.49.27C45.65,80.53,45.84,80.33,45.93,79.93Zm0-1.12a1.24,1.24,0,0,0-.19-.74.52.52,0,0,0-.9,0,1.2,1.2,0,0,0-.19.73Z"/><path class="cls-15" d="M48.34,81.26h-.85V77.07h.79v.6a1.83,1.83,0,0,1,.37-.56A.57.57,0,0,1,49,77a.87.87,0,0,1,.56.21l-.26,1a.67.67,0,0,0-.41-.18.41.41,0,0,0-.31.14.94.94,0,0,0-.2.51A9.84,9.84,0,0,0,48.34,80Z"/><path class="cls-15" d="M49.65,80.07l.86-.17c.07.44.31.66.69.66a.67.67,0,0,0,.46-.13.38.38,0,0,0,.16-.33.33.33,0,0,0-.07-.21.65.65,0,0,0-.28-.14,3.7,3.7,0,0,1-1.34-.57,1.19,1.19,0,0,1-.36-.92,1.26,1.26,0,0,1,.35-.93,1.35,1.35,0,0,1,1-.36,1.48,1.48,0,0,1,1,.27,1.43,1.43,0,0,1,.47.84l-.81.2a.57.57,0,0,0-.61-.51.75.75,0,0,0-.45.1.29.29,0,0,0-.13.25.28.28,0,0,0,.12.23,3.23,3.23,0,0,0,.76.28,2.2,2.2,0,0,1,1,.52,1.24,1.24,0,0,1,.25.81,1.35,1.35,0,0,1-.39,1,1.45,1.45,0,0,1-1.09.4,1.53,1.53,0,0,1-1-.33A1.62,1.62,0,0,1,49.65,80.07Z"/><path class="cls-15" d="M53.43,76.5v-1h.86v1Zm0,4.76V77.07h.86v4.19Z"/><path class="cls-15" d="M56.65,77.07V78h-.59v1.69a3.39,3.39,0,0,0,0,.63.2.2,0,0,0,.21.16.92.92,0,0,0,.34-.11l.08.86a1.4,1.4,0,0,1-.68.17.79.79,0,0,1-.52-.17.88.88,0,0,1-.27-.47,6,6,0,0,1,0-.94V78h-.39v-.89h.39v-.83l.86-.65v1.48Z"/><path class="cls-15" d="M57.89,78.35l-.78-.18a1.66,1.66,0,0,1,.46-.92,1.44,1.44,0,0,1,.94-.28,1.69,1.69,0,0,1,.83.17.88.88,0,0,1,.41.44,2.85,2.85,0,0,1,.12,1v1.29a5.33,5.33,0,0,0,0,.81,2.19,2.19,0,0,0,.15.57h-.85l-.11-.46a1.52,1.52,0,0,1-.47.42,1.14,1.14,0,0,1-.54.14,1,1,0,0,1-.77-.34,1.29,1.29,0,0,1-.3-.9,1.52,1.52,0,0,1,.12-.62,1.1,1.1,0,0,1,.35-.42,2.25,2.25,0,0,1,.71-.28,4.17,4.17,0,0,0,.83-.27,1.53,1.53,0,0,0,0-.46.44.44,0,0,0-.18-.18.8.8,0,0,0-.35-.07.57.57,0,0,0-.36.11A.78.78,0,0,0,57.89,78.35Zm1.14.9a4.94,4.94,0,0,1-.51.17,1.14,1.14,0,0,0-.52.24.51.51,0,0,0-.12.35.6.6,0,0,0,.13.4.44.44,0,0,0,.34.17.66.66,0,0,0,.37-.13.73.73,0,0,0,.24-.32,2,2,0,0,0,.07-.66Z"/><path class="cls-15" d="M60.72,76.5v-1h.86v1Zm0,4.76V77.07h.86v4.19Z"/><path class="cls-15" d="M63.28,81.26h-.86V77.07h.8v.6a1.85,1.85,0,0,1,.36-.56A.59.59,0,0,1,64,77a.91.91,0,0,1,.56.21l-.27,1a.62.62,0,0,0-.4-.18.39.39,0,0,0-.31.14.94.94,0,0,0-.2.51A9.84,9.84,0,0,0,63.28,80Z"/><path class="cls-15" d="M66.77,79.93l.85.19a1.75,1.75,0,0,1-.53.93,1.28,1.28,0,0,1-.88.31,1.31,1.31,0,0,1-1.11-.51,2.64,2.64,0,0,1-.46-1.66,2.76,2.76,0,0,1,.46-1.68,1.23,1.23,0,0,1,1-.54,1.27,1.27,0,0,1,1.09.55,3.07,3.07,0,0,1,.46,1.84v.13H65.52a1.24,1.24,0,0,0,.21.77.59.59,0,0,0,.49.27C66.5,80.53,66.68,80.33,66.77,79.93Zm0-1.12a1.31,1.31,0,0,0-.2-.74.52.52,0,0,0-.9,0,1.2,1.2,0,0,0-.19.73Z"/><path class="cls-15" d="M73.07,81.26h-.8v-.61a1.51,1.51,0,0,1-.46.53,1,1,0,0,1-.55.18,1.15,1.15,0,0,1-1-.58,3.56,3.56,0,0,1,0-3.26,1.18,1.18,0,0,1,1-.55,1,1,0,0,1,.51.15,1.39,1.39,0,0,1,.43.44V75.48h.86Zm-2.28-2.18a2.87,2.87,0,0,0,.09.84.8.8,0,0,0,.26.42.54.54,0,0,0,.38.14.57.57,0,0,0,.49-.32,1.83,1.83,0,0,0,.21-1,2,2,0,0,0-.21-1,.59.59,0,0,0-.51-.32.62.62,0,0,0-.51.31A1.84,1.84,0,0,0,70.79,79.08Z"/><path class="cls-15" d="M73.91,77.53l-.16-1.07v-1h.93v1l-.14,1.07Z"/><path class="cls-15" d="M79.45,81.26h-1L78.07,80H76.28l-.37,1.31H75l1.75-5.78h1ZM77.78,79l-.61-2.14L76.56,79Z"/><path class="cls-15" d="M79.87,81.26V75.48h.86v2.08a1.42,1.42,0,0,1,.44-.44.89.89,0,0,1,.5-.15,1.18,1.18,0,0,1,1,.55,3.48,3.48,0,0,1,0,3.26,1.15,1.15,0,0,1-.95.58,1,1,0,0,1-.55-.18,1.61,1.61,0,0,1-.46-.53v.61Zm.86-2.18a2.85,2.85,0,0,0,.09.82,1,1,0,0,0,.28.44.61.61,0,0,0,.37.14.58.58,0,0,0,.49-.31,2.62,2.62,0,0,0,0-2,.59.59,0,0,0-.51-.32.6.6,0,0,0-.51.31A1.72,1.72,0,0,0,80.73,79.08Z"/><path class="cls-15" d="M83.73,76.5v-1h.86v1Zm0,4.76V77.07h.86v4.19Z"/><path class="cls-15" d="M88.44,81.26h-.8v-.61a1.51,1.51,0,0,1-.46.53,1,1,0,0,1-.55.18,1.14,1.14,0,0,1-.95-.58,3.56,3.56,0,0,1,0-3.26,1.18,1.18,0,0,1,1-.55,1,1,0,0,1,.51.15,1.51,1.51,0,0,1,.43.44V75.48h.86Zm-2.29-2.18a2.51,2.51,0,0,0,.1.84.86.86,0,0,0,.25.42.57.57,0,0,0,.39.14.59.59,0,0,0,.49-.32,1.94,1.94,0,0,0,.2-1,2,2,0,0,0-.2-1,.6.6,0,0,0-.51-.32.62.62,0,0,0-.51.31A1.74,1.74,0,0,0,86.15,79.08Z"/><path class="cls-15" d="M90.13,77.07v4.06A5,5,0,0,1,90,82.3a.86.86,0,0,1-.89.66,1.87,1.87,0,0,1-.6-.12l.15-.94.22,0a.3.3,0,0,0,.3-.19,2.52,2.52,0,0,0,0-.67v-4Zm-.86-.57v-1h.86v1Z"/><path class="cls-15" d="M91.66,78.35l-.77-.18a1.66,1.66,0,0,1,.46-.92,1.44,1.44,0,0,1,.94-.28,1.69,1.69,0,0,1,.83.17.88.88,0,0,1,.41.44,2.85,2.85,0,0,1,.12,1v1.29a5,5,0,0,0,0,.81,2.19,2.19,0,0,0,.15.57H93l-.11-.46a1.64,1.64,0,0,1-.47.42,1.14,1.14,0,0,1-.54.14A1,1,0,0,1,91.1,81a1.29,1.29,0,0,1-.3-.9,1.52,1.52,0,0,1,.12-.62,1.1,1.1,0,0,1,.35-.42A2.25,2.25,0,0,1,92,78.8a4.42,4.42,0,0,0,.83-.27,1.18,1.18,0,0,0,0-.46.36.36,0,0,0-.17-.18.8.8,0,0,0-.35-.07.57.57,0,0,0-.36.11A.86.86,0,0,0,91.66,78.35Zm1.15.9a4.94,4.94,0,0,1-.51.17,1.14,1.14,0,0,0-.52.24.51.51,0,0,0-.12.35.6.6,0,0,0,.13.4.44.44,0,0,0,.34.17.61.61,0,0,0,.36-.13.69.69,0,0,0,.25-.32,2,2,0,0,0,.07-.66Z"/><path class="cls-15" d="M97.45,81.26h-.86V79.12a5.05,5.05,0,0,0,0-.86.53.53,0,0,0-.18-.32.44.44,0,0,0-.3-.12.6.6,0,0,0-.39.15.78.78,0,0,0-.25.41,4.92,4.92,0,0,0-.07,1v1.9h-.86V77.07h.8v.61a1.66,1.66,0,0,1,.48-.53,1,1,0,0,1,.59-.18,1,1,0,0,1,.63.21,1.14,1.14,0,0,1,.36.53,3.76,3.76,0,0,1,.1,1Z"/><path class="cls-4" d="M7.72,81.46V75.68h.9v5.78Z"/><path class="cls-4" d="M12.43,81.46h-.86V79.32a5,5,0,0,0-.05-.86.59.59,0,0,0-.18-.33A.48.48,0,0,0,11,78a.6.6,0,0,0-.39.15.71.71,0,0,0-.24.41,4.24,4.24,0,0,0-.07,1v1.9H9.48V77.27h.79v.61a1.56,1.56,0,0,1,.48-.53,1,1,0,0,1,.59-.18,1,1,0,0,1,.63.21,1,1,0,0,1,.36.53,3.27,3.27,0,0,1,.1.94Z"/><path class="cls-4" d="M13,80.27l.86-.17q.11.66.69.66a.72.72,0,0,0,.46-.13.4.4,0,0,0,.15-.33.38.38,0,0,0-.06-.22.66.66,0,0,0-.28-.13,3.62,3.62,0,0,1-1.34-.57,1.19,1.19,0,0,1-.36-.92,1.26,1.26,0,0,1,.35-.94,1.38,1.38,0,0,1,1-.35,1.56,1.56,0,0,1,1,.26,1.49,1.49,0,0,1,.47.85l-.81.19a.57.57,0,0,0-.61-.5.84.84,0,0,0-.45.09.31.31,0,0,0-.14.26.27.27,0,0,0,.13.22,2.89,2.89,0,0,0,.76.29,2,2,0,0,1,1,.52,1.21,1.21,0,0,1,.26.81,1.36,1.36,0,0,1-.39,1,1.51,1.51,0,0,1-1.09.4,1.57,1.57,0,0,1-1-.33A1.61,1.61,0,0,1,13,80.27Z"/><path class="cls-4" d="M18.26,77.27v.88h-.59v1.69a3.46,3.46,0,0,0,0,.64.21.21,0,0,0,.21.16.92.92,0,0,0,.34-.11l.08.86a1.4,1.4,0,0,1-.68.17.79.79,0,0,1-.52-.17.8.8,0,0,1-.26-.48,4.49,4.49,0,0,1-.06-.93V78.15h-.39v-.88h.39v-.83l.86-.65v1.48Z"/><path class="cls-4" d="M18.86,76.7v-1h.86v1Zm0,4.76V77.27h.86v4.19Z"/><path class="cls-4" d="M22.07,77.27v.88h-.58v1.69a3.46,3.46,0,0,0,0,.64.21.21,0,0,0,.21.16.92.92,0,0,0,.34-.11l.08.86a1.4,1.4,0,0,1-.68.17.77.77,0,0,1-.52-.17.87.87,0,0,1-.27-.48,5.74,5.74,0,0,1-.05-.93V78.15h-.39v-.88h.39v-.83l.86-.65v1.48Z"/><path class="cls-4" d="M24.8,81.46v-.63a1.36,1.36,0,0,1-.47.53,1.05,1.05,0,0,1-.6.2,1,1,0,0,1-.58-.18,1,1,0,0,1-.37-.51,2.57,2.57,0,0,1-.13-1V77.27h.86v1.92a7.49,7.49,0,0,0,0,1,.64.64,0,0,0,.17.35.48.48,0,0,0,.33.12.56.56,0,0,0,.39-.16.78.78,0,0,0,.24-.41,6.17,6.17,0,0,0,.06-1.1V77.27h.86v4.19Z"/><path class="cls-4" d="M28,77.27v.88h-.58v1.69a6,6,0,0,0,0,.64.22.22,0,0,0,.22.16.92.92,0,0,0,.34-.11l.07.86a1.36,1.36,0,0,1-.67.17.77.77,0,0,1-.52-.17.81.81,0,0,1-.27-.48,5.74,5.74,0,0,1,0-.93V78.15h-.4v-.88h.4v-.83l.86-.65v1.48Z"/><path class="cls-4" d="M30.31,75.68h.9v3.13a9.24,9.24,0,0,0,0,1,1,1,0,0,0,.28.59.86.86,0,0,0,.6.21.81.81,0,0,0,.51-.15A.74.74,0,0,0,32.9,80,5.28,5.28,0,0,0,33,78.87V75.68h.9v3a9.24,9.24,0,0,1-.11,1.68,1.44,1.44,0,0,1-.53.84,1.71,1.71,0,0,1-1.09.33,1.91,1.91,0,0,1-1.09-.27,1.54,1.54,0,0,1-.57-.75,5.93,5.93,0,0,1-.17-1.78Z"/><path class="cls-4" d="M37.77,81.46h-.86V79.32a5,5,0,0,0,0-.86.59.59,0,0,0-.18-.33.48.48,0,0,0-.3-.11.56.56,0,0,0-.39.15.78.78,0,0,0-.25.41,4.24,4.24,0,0,0-.07,1v1.9h-.86V77.27h.8v.61a1.56,1.56,0,0,1,.48-.53,1,1,0,0,1,.59-.18,1,1,0,0,1,.63.21,1.1,1.1,0,0,1,.36.53,3.67,3.67,0,0,1,.1.94Z"/><path class="cls-4" d="M38.64,76.7v-1h.86v1Zm0,4.76V77.27h.86v4.19Z"/><path class="cls-4" d="M41.27,81.46,40,77.27h.9l.61,2.14.18.71.18-.71.62-2.14h.88L42,81.46Z"/><path class="cls-4" d="M45.73,80.13l.86.18a1.86,1.86,0,0,1-.54.94,1.33,1.33,0,0,1-.88.31,1.31,1.31,0,0,1-1.11-.51,2.64,2.64,0,0,1-.46-1.66,2.82,2.82,0,0,1,.47-1.69,1.22,1.22,0,0,1,1-.53,1.27,1.27,0,0,1,1.09.55,3.12,3.12,0,0,1,.45,1.84v.12H44.48a1.22,1.22,0,0,0,.21.77.59.59,0,0,0,.49.28C45.46,80.73,45.64,80.53,45.73,80.13ZM45.78,79a1.3,1.3,0,0,0-.2-.73.53.53,0,0,0-.44-.25.53.53,0,0,0-.46.26,1.16,1.16,0,0,0-.19.72Z"/><path class="cls-4" d="M48.15,81.46h-.86V77.27h.79v.6a1.83,1.83,0,0,1,.37-.56.57.57,0,0,1,.38-.14.91.91,0,0,1,.56.21l-.27,1a.67.67,0,0,0-.4-.19.42.42,0,0,0-.32.15,1,1,0,0,0-.19.5,10,10,0,0,0-.06,1.35Z"/><path class="cls-4" d="M49.45,80.27l.86-.17c.08.44.31.66.7.66a.74.74,0,0,0,.46-.13.4.4,0,0,0,.15-.33.32.32,0,0,0-.07-.22.6.6,0,0,0-.28-.13,3.7,3.7,0,0,1-1.34-.57,1.19,1.19,0,0,1-.36-.92,1.3,1.3,0,0,1,.35-.94,1.4,1.4,0,0,1,1-.35,1.58,1.58,0,0,1,1,.26,1.48,1.48,0,0,1,.46.85l-.81.19A.57.57,0,0,0,51,78a.84.84,0,0,0-.45.09.3.3,0,0,0-.13.26.26.26,0,0,0,.12.22,3.07,3.07,0,0,0,.76.29,2.05,2.05,0,0,1,1,.52,1.21,1.21,0,0,1,.25.81,1.36,1.36,0,0,1-.39,1,1.46,1.46,0,0,1-1.08.4,1.55,1.55,0,0,1-1-.33A1.62,1.62,0,0,1,49.45,80.27Z"/><path class="cls-4" d="M53.23,76.7v-1h.86v1Zm0,4.76V77.27h.86v4.19Z"/><path class="cls-4" d="M56.45,77.27v.88h-.58v1.69a4,4,0,0,0,0,.64.22.22,0,0,0,.21.16,1,1,0,0,0,.35-.11l.07.86a1.36,1.36,0,0,1-.67.17.74.74,0,0,1-.79-.65A4.74,4.74,0,0,1,55,80V78.15h-.4v-.88H55v-.83l.86-.65v1.48Z"/><path class="cls-4" d="M57.69,78.54l-.78-.18a1.63,1.63,0,0,1,.47-.91,1.36,1.36,0,0,1,.93-.28,1.79,1.79,0,0,1,.83.16,1,1,0,0,1,.41.44,2.9,2.9,0,0,1,.13,1v1.29a5.5,5.5,0,0,0,0,.81,3.45,3.45,0,0,0,.15.57H59L58.9,81a1.68,1.68,0,0,1-.47.42,1.1,1.1,0,0,1-.53.14,1,1,0,0,1-.78-.34,1.32,1.32,0,0,1-.3-.9,1.49,1.49,0,0,1,.12-.62,1,1,0,0,1,.35-.42A2.12,2.12,0,0,1,58,79a3.49,3.49,0,0,0,.83-.28,1.45,1.45,0,0,0,0-.45.33.33,0,0,0-.17-.18.7.7,0,0,0-.35-.07.58.58,0,0,0-.37.11A.75.75,0,0,0,57.69,78.54Zm1.14.91a4,4,0,0,1-.51.16,1.31,1.31,0,0,0-.52.25.5.5,0,0,0-.12.35.61.61,0,0,0,.14.4.42.42,0,0,0,.34.17.61.61,0,0,0,.36-.14.73.73,0,0,0,.25-.31,2.41,2.41,0,0,0,.06-.66Z"/><path class="cls-4" d="M60.52,76.7v-1h.86v1Zm0,4.76V77.27h.86v4.19Z"/><path class="cls-4" d="M63.08,81.46h-.86V77.27H63v.6a1.83,1.83,0,0,1,.37-.56.57.57,0,0,1,.37-.14.89.89,0,0,1,.56.21l-.26,1a.69.69,0,0,0-.41-.19.4.4,0,0,0-.31.15.94.94,0,0,0-.2.5,10,10,0,0,0-.06,1.35Z"/><path class="cls-4" d="M66.57,80.13l.86.18a1.86,1.86,0,0,1-.54.94,1.44,1.44,0,0,1-2-.2,2.71,2.71,0,0,1-.46-1.66,2.82,2.82,0,0,1,.47-1.69,1.22,1.22,0,0,1,1-.53,1.27,1.27,0,0,1,1.09.55,3.12,3.12,0,0,1,.45,1.84v.12H65.32a1.36,1.36,0,0,0,.21.77.59.59,0,0,0,.49.28C66.3,80.73,66.48,80.53,66.57,80.13ZM66.62,79a1.22,1.22,0,0,0-.2-.73A.53.53,0,0,0,66,78a.55.55,0,0,0-.46.26,1.1,1.1,0,0,0-.18.72Z"/><path class="cls-4" d="M72.87,81.46h-.79v-.62a1.48,1.48,0,0,1-.47.54,1,1,0,0,1-.55.18,1.15,1.15,0,0,1-.94-.58,2.82,2.82,0,0,1-.41-1.64,2.69,2.69,0,0,1,.4-1.62,1.14,1.14,0,0,1,1-.55.92.92,0,0,1,.51.15,1.35,1.35,0,0,1,.43.43V75.68h.86Zm-2.28-2.19a3,3,0,0,0,.09.85.87.87,0,0,0,.26.42.55.55,0,0,0,.87-.18,1.85,1.85,0,0,0,.21-1,2.07,2.07,0,0,0-.2-1A.62.62,0,0,0,71.3,78a.59.59,0,0,0-.5.31A1.7,1.7,0,0,0,70.59,79.27Z"/><path class="cls-4" d="M73.71,77.73l-.16-1.08v-1h.94v1l-.15,1.08Z"/><path class="cls-4" d="M79.25,81.46h-1l-.39-1.31H76.09l-.37,1.31h-1l1.74-5.78h1Zm-1.66-2.29L77,77l-.61,2.14Z"/><path class="cls-4" d="M79.68,81.46V75.68h.86v2.07a1.35,1.35,0,0,1,.43-.43.92.92,0,0,1,.51-.15,1.14,1.14,0,0,1,1,.55,2.73,2.73,0,0,1,.4,1.62A2.82,2.82,0,0,1,82.43,81a1.16,1.16,0,0,1-1,.58.94.94,0,0,1-.55-.19,1.51,1.51,0,0,1-.46-.53v.62Zm.85-2.19a2.93,2.93,0,0,0,.09.83,1,1,0,0,0,.28.43.54.54,0,0,0,.86-.16,2,2,0,0,0,.2-1,2,2,0,0,0-.2-1,.62.62,0,0,0-.52-.32.59.59,0,0,0-.5.31A1.68,1.68,0,0,0,80.53,79.27Z"/><path class="cls-4" d="M83.53,76.7v-1h.86v1Zm0,4.76V77.27h.86v4.19Z"/><path class="cls-4" d="M88.24,81.46h-.79v-.62a1.58,1.58,0,0,1-.47.54,1,1,0,0,1-.55.18,1.18,1.18,0,0,1-1-.58,2.82,2.82,0,0,1-.4-1.64,2.76,2.76,0,0,1,.39-1.62,1.17,1.17,0,0,1,1-.55,1,1,0,0,1,.51.15,1.35,1.35,0,0,1,.43.43V75.68h.86ZM86,79.27a3,3,0,0,0,.09.85.87.87,0,0,0,.26.42.55.55,0,0,0,.87-.18,1.85,1.85,0,0,0,.21-1,2,2,0,0,0-.21-1,.59.59,0,0,0-.51-.32.57.57,0,0,0-.5.31A1.7,1.7,0,0,0,86,79.27Z"/><path class="cls-4" d="M89.93,77.27v4.06a5,5,0,0,1-.09,1.17.88.88,0,0,1-.32.49.94.94,0,0,1-.57.17,1.77,1.77,0,0,1-.59-.12l.15-1a.59.59,0,0,0,.21,0,.32.32,0,0,0,.31-.19,2.8,2.8,0,0,0,0-.68v-4Zm-.86-.57v-1h.86v1Z"/><path class="cls-4" d="M91.47,78.54l-.78-.18a1.57,1.57,0,0,1,.47-.91,1.36,1.36,0,0,1,.93-.28,1.79,1.79,0,0,1,.83.16,1,1,0,0,1,.41.44,3,3,0,0,1,.12,1v1.29a5.5,5.5,0,0,0,0,.81,3.45,3.45,0,0,0,.15.57h-.85L92.68,81a1.82,1.82,0,0,1-.47.42,1.13,1.13,0,0,1-.53.14,1,1,0,0,1-.78-.34,1.32,1.32,0,0,1-.3-.9,1.49,1.49,0,0,1,.12-.62,1,1,0,0,1,.35-.42,2.12,2.12,0,0,1,.71-.28,3.49,3.49,0,0,0,.83-.28,1.45,1.45,0,0,0,0-.45.33.33,0,0,0-.17-.18A.72.72,0,0,0,92,78a.57.57,0,0,0-.36.11A.75.75,0,0,0,91.47,78.54Zm1.14.91c-.11,0-.28.1-.51.16a1.31,1.31,0,0,0-.52.25.5.5,0,0,0-.12.35.61.61,0,0,0,.14.4.42.42,0,0,0,.34.17.61.61,0,0,0,.36-.14.73.73,0,0,0,.25-.31,2.41,2.41,0,0,0,.06-.66Z"/><path class="cls-4" d="M97.25,81.46h-.86V79.32a5,5,0,0,0,0-.86.59.59,0,0,0-.18-.33.48.48,0,0,0-.3-.11.6.6,0,0,0-.39.15.76.76,0,0,0-.24.41,4.24,4.24,0,0,0-.07,1v1.9H94.3V77.27h.79v.61a1.56,1.56,0,0,1,.48-.53,1,1,0,0,1,.59-.18,1,1,0,0,1,.63.21,1,1,0,0,1,.36.53,3.27,3.27,0,0,1,.1.94Z"/></svg>