<?xml version="1.0" encoding="utf-8"?>
<!-- Generator: Adobe Illustrator 24.2.0, SVG Export Plug-In . SVG Version: 6.00 Build 0)  -->
<svg version="1.1"
	 id="svg1349" xmlns:cc="http://creativecommons.org/ns#" xmlns:dc="http://purl.org/dc/elements/1.1/" xmlns:inkscape="http://www.inkscape.org/namespaces/inkscape" xmlns:rdf="http://www.w3.org/1999/02/22-rdf-syntax-ns#" xmlns:sodipodi="http://sodipodi.sourceforge.net/DTD/sodipodi-0.dtd" xmlns:svg="http://www.w3.org/2000/svg"
	 xmlns="http://www.w3.org/2000/svg" xmlns:xlink="http://www.w3.org/1999/xlink" x="0px" y="0px" viewBox="0 0 428.8 88.1"
	 style="enable-background:new 0 0 428.8 88.1;" xml:space="preserve">
<style type="text/css">
	.st0{fill:#F0F0F0;}
	.st1{fill:#F2F2F2;}
	.st2{fill:#3F3D56;}
	.st3{fill:#9E616A;}
	.st4{fill:#2F2E41;}
	.st5{fill:#E4E4E4;}
	.st6{fill:#2FA8E0;}
	.st7{fill:#6C63FF;}
	.st8{fill:#3EB0E3;}
	.st9{fill:#FFFFFF;}
	.st10{fill:#144076;}
	.st11{clip-path:url(#SVGID_2_);}
	.st12{fill:none;stroke:#144076;stroke-width:0.5;stroke-miterlimit:10;}
	.st13{fill:url(#SVGID_3_);stroke:#3EB0E3;stroke-width:0.25;stroke-miterlimit:10;}
	.st14{fill:url(#SVGID_4_);stroke:#3EB0E3;stroke-width:0.25;stroke-miterlimit:10;}
	.st15{fill:url(#SVGID_5_);stroke:#3EB0E3;stroke-width:0.25;stroke-miterlimit:10;}
	.st16{fill:url(#SVGID_6_);stroke:#3EB0E3;stroke-width:0.25;stroke-miterlimit:10;}
	.st17{fill:url(#SVGID_7_);stroke:#3EB0E3;stroke-width:0.25;stroke-miterlimit:10;}
	.st18{fill:url(#SVGID_8_);stroke:#3EB0E3;stroke-width:0.25;stroke-miterlimit:10;}
	.st19{fill:url(#SVGID_9_);stroke:#3EB0E3;stroke-width:0.25;stroke-miterlimit:10;}
	.st20{fill:#134074;stroke:#134074;stroke-width:0.25;stroke-miterlimit:10;}
</style>
<g>
	<rect x="399.4" y="83.4" class="st0" width="5" height="4.4"/>
	<path class="st1" d="M427.1,40.8c0,13.6-7.4,26.2-19.4,32.7c-0.3,0.2-0.7,0.4-1,0.5c-1.3,0.6-2.5,1.2-3.9,1.7
		c-0.5,0.2-1.1,0.4-1.6,0.6c-0.1,0-0.1,0-0.2,0.1c-10.7,3.4-22.3,1.8-31.6-4.3c-0.6-0.4-1.2-0.8-1.8-1.3c-0.3-0.2-0.7-0.5-1-0.8
		c-0.9-0.7-1.8-1.5-2.7-2.3c-7.3-7-11.4-16.7-11.4-26.8c0-20.6,16.7-37.3,37.3-37.3S427.1,20.2,427.1,40.8z"/>
	<path class="st2" d="M398.7,58.2l-0.8,3.2l3.2,15c-8.6,2.7-17.8,2.2-26.1-1.3l2.5-10.4l0.1-5.7l0.3-18.7l0.1,0c0,0,0,0,0,0l6.3-3.3
		l10.9-0.3l8.2,4l-0.1,0.2L398.7,58.2z"/>
	<path class="st3" d="M403.2,85.5c-0.9-1.1-0.8-2.8,0.3-3.8c0.1-0.1,0.2-0.2,0.4-0.3l-1.8-9.3l4.6,1.9l1,8.6
		c0.7,1.3,0.1,2.9-1.2,3.6C405.3,86.7,404,86.5,403.2,85.5L403.2,85.5z"/>
	<path class="st2" d="M401.7,40.9l1.2-0.4c0,0,3.7,2.4,3.4,8.1c0,0,0.1,3,0,5c-0.2,2.3,1.9,24.9,1.9,24.9h-6.6L398.7,58L401.7,40.9z
		"/>
	<path class="st3" d="M397.9,26.4c0,4.2-3.4,7.6-7.6,7.6c-4.2,0-7.6-3.4-7.6-7.6s3.4-7.6,7.6-7.6h0
		C394.5,18.8,397.9,22.2,397.9,26.4C397.9,26.4,397.9,26.4,397.9,26.4z"/>
	<path class="st4" d="M382.7,16.3c0.9-1.9,2.6-1.5,4.1-0.9c1.9-0.4,3.7-1.7,5.8-0.9c2,2.9,8.8,2.1,7.4,6.9c0,1.1,2.2,0.5,1.8,2.4
		c1.1,3.6-4.1,10.5-7.2,9c0.7-1.4,2.5-4.5-0.1-4.8c-5.6,5.2-0.6-9.9-7.6-5.5C384.5,24.5,381.4,18.4,382.7,16.3z"/>
	<path class="st5" d="M394.3,77.1l-12.1-2.4l3.1-15.7c4.3,1.6,8.3,2.4,12.1,2.4C394.1,66.3,392.6,71.5,394.3,77.1z"/>
	<path class="st6" d="M392.6,78l-12.1-2.4c-1-7.1-0.1-12.5,3.1-15.7c4.3,1.6,8.3,2.4,12.1,2.4C393.7,67.3,392.6,72.7,392.6,78z"/>
	<path class="st3" d="M384.5,73.7c-0.2-1.5-1.5-2.5-3-2.3c-0.2,0-0.3,0.1-0.5,0.1l-5.6-7.7l-1.7,4.6l5.6,6.6
		c0.5,1.4,2.1,2.1,3.5,1.5C384,76.1,384.7,74.9,384.5,73.7L384.5,73.7z"/>
	<path class="st2" d="M379.5,40.6l-1-0.7c0,0-6.1,0.6-7.3,6.2c0,0-0.9,3.4-1.3,5.3c-0.2,1-3.1,10.6-3.1,10.6l9.7,10.6l2.7-4
		l-2.7-6.7L379.5,40.6z"/>
	<rect x="290.2" y="22.3" class="st6" width="5" height="4.4"/>
	<rect x="308.8" y="70.3" class="st7" width="5" height="4.4"/>
	<path class="st5" d="M308.9,12.1c-0.3,0-0.6,0.3-0.6,0.6c0,0.3,0.3,0.6,0.6,0.6h41c0.3,0,0.6-0.3,0.6-0.6c0-0.3-0.3-0.6-0.6-0.6
		H308.9z"/>
	<path class="st5" d="M308.9,15.4c-0.3,0-0.6,0.2-0.6,0.6c0,0.3,0.2,0.6,0.6,0.6c0,0,0,0,0,0h25.9c0.3,0,0.6-0.3,0.6-0.6
		c0-0.3-0.3-0.6-0.6-0.6c0,0,0,0,0,0H308.9z"/>
	<path class="st5" d="M326.9,81.3c-0.3,0-0.6,0.3-0.6,0.6c0,0.3,0.3,0.6,0.6,0.6h41c0.3,0,0.6-0.3,0.6-0.6c0-0.3-0.3-0.6-0.6-0.6
		H326.9z"/>
	<path class="st2" d="M292.6,24.5c2.4-0.5,4.5-2,5.9-4.1c0.4-0.6,0.7-1.2,0.9-1.9c0-0.1,0-0.2-0.1-0.3c-0.1,0-0.2,0-0.3,0.1
		c-0.8,2.2-2.4,4.1-4.5,5.1c-0.6,0.3-1.2,0.5-1.9,0.6C292.2,24.1,292.3,24.6,292.6,24.5L292.6,24.5z"/>
	<path class="st2" d="M296.9,19.3c0.8-0.5,1.6-0.9,2.4-1.4c0,0,0.1-0.1,0.2-0.1c0,0,0,0,0,0c0,0,0,0.1,0,0.1c0,0.2,0,0.5,0,0.7
		l0,1.3c0,0.3,0.5,0.3,0.4,0l0-1.6c0-0.4,0.1-1.2-0.5-1.1c-0.2,0-0.4,0.2-0.6,0.3l-0.7,0.4l-1.4,0.8C296.5,19,296.6,19.4,296.9,19.3
		L296.9,19.3z"/>
	<path class="st2" d="M311.2,72.4c2.3,0.6,4.3,2.1,5.4,4.2c0.3,0.6,0.6,1.2,0.8,1.8c0,0.1,0.2,0.2,0.3,0.1c0.1,0,0.2-0.1,0.1-0.3
		c-0.7-2.4-2.3-4.4-4.5-5.6c-0.6-0.3-1.3-0.6-2-0.8C311,71.9,310.9,72.3,311.2,72.4L311.2,72.4z"/>
	<path class="st2" d="M315.2,77.7l1.4,0.8l0.7,0.4c0.2,0.1,0.4,0.3,0.7,0.3c0.5,0,0.5-0.7,0.5-1.1l0.1-1.6c0-0.3-0.4-0.3-0.4,0
		L318,78l0,0.6c0,0,0,0.2,0,0.2c0,0,0,0,0,0c0,0-0.1-0.1-0.1-0.1l-2.3-1.4C315.2,77.1,315,77.5,315.2,77.7L315.2,77.7z"/>
	<circle class="st6" cx="300.3" cy="14.1" r="2.1"/>
	<g>
		<rect x="301" y="48" class="st6" width="5" height="4.4"/>
		<path class="st5" d="M303.6,60.4c-0.3,0-0.6,0.3-0.6,0.6c0,0.3,0.3,0.6,0.6,0.6h41c0.3,0,0.6-0.3,0.6-0.6c0-0.3-0.3-0.6-0.6-0.6
			H303.6z"/>
		<path class="st5" d="M303.6,63.8c-0.3,0-0.6,0.2-0.6,0.6c0,0.3,0.2,0.6,0.6,0.6c0,0,0,0,0,0h25.9c0.3,0,0.6-0.3,0.6-0.6
			c0-0.3-0.3-0.6-0.6-0.6c0,0,0,0,0,0H303.6z"/>
		<path class="st2" d="M303.6,50.2c-2.4,0.6-4.5,2.2-5.7,4.4c-0.3,0.6-0.6,1.3-0.8,1.9c0,0.1,0,0.2,0.2,0.3c0.1,0,0.2,0,0.3-0.1
			c0.7-2.3,2.2-4.2,4.3-5.3c0.6-0.3,1.2-0.5,1.8-0.7C304,50.6,303.8,50.1,303.6,50.2L303.6,50.2z"/>
		<path class="st2" d="M299.5,55.6l-2.3,1.4c0,0-0.1,0.1-0.1,0.1c0,0-0.1,0-0.1,0c0,0,0-0.2,0-0.2l0-0.7l-0.1-1.3
			c0-0.3-0.5-0.3-0.4,0l0.1,1.6c0,0.4,0,1.1,0.5,1.1c0.2,0,0.5-0.2,0.7-0.3l0.7-0.4l1.4-0.8C299.9,55.8,299.7,55.4,299.5,55.6
			L299.5,55.6z"/>
		<circle class="st6" cx="296.7" cy="62.7" r="2.1"/>
	</g>
</g>
<g>
	<polygon class="st8" points="376.5,84.7 380.5,69.3 137.5,69.3 133.5,84.7 	"/>
	<polygon class="st6" points="132.8,88.1 127.7,88.1 154.8,0 159.9,0 	"/>
</g>
<g>
	<path class="st6" d="M152.1,32.4h3.8c0.7,0,1.3,0,1.7,0.1c0.4,0.1,0.7,0.2,1,0.5s0.5,0.6,0.7,1c0.2,0.4,0.3,0.9,0.3,1.4
		c0,0.6-0.1,1.1-0.4,1.6c-0.2,0.5-0.6,0.8-1,1.1c0.6,0.2,1,0.6,1.3,1.1s0.5,1.1,0.5,1.8c0,0.6-0.1,1.1-0.3,1.6
		c-0.2,0.5-0.5,0.9-0.8,1.3c-0.3,0.3-0.8,0.5-1.3,0.6c-0.3,0-1.1,0.1-2.3,0.1h-3.2V32.4z M154,34.5v2.8h1.3c0.7,0,1.2,0,1.4,0
		c0.3,0,0.6-0.2,0.8-0.4c0.2-0.2,0.3-0.6,0.3-1c0-0.4-0.1-0.7-0.2-0.9c-0.2-0.2-0.4-0.4-0.7-0.4c-0.2,0-0.7,0-1.6,0H154z M154,39.3
		v3.3h1.8c0.7,0,1.1,0,1.3-0.1c0.3-0.1,0.5-0.2,0.7-0.5c0.2-0.3,0.3-0.6,0.3-1c0-0.4-0.1-0.7-0.2-0.9c-0.1-0.3-0.3-0.4-0.6-0.6
		s-0.8-0.2-1.7-0.2H154z"/>
	<path class="st6" d="M161.7,34.6v-2.2h1.8v2.2H161.7z M161.7,44.6v-8.8h1.8v8.8H161.7z"/>
	<path class="st6" d="M169.3,41.8l1.8,0.4c-0.2,0.9-0.6,1.5-1.1,1.9c-0.5,0.4-1.1,0.7-1.9,0.7c-1.2,0-2.1-0.5-2.6-1.5
		c-0.5-0.8-0.7-1.8-0.7-3c0-1.5,0.3-2.6,0.9-3.4c0.6-0.8,1.3-1.2,2.3-1.2c1,0,1.8,0.4,2.4,1.3c0.6,0.9,0.9,2.2,0.8,4h-4.5
		c0,0.7,0.2,1.2,0.4,1.6c0.3,0.4,0.6,0.6,1,0.6c0.3,0,0.5-0.1,0.7-0.3S169.2,42.3,169.3,41.8z M169.4,39.5c0-0.7-0.1-1.2-0.4-1.5
		c-0.3-0.4-0.6-0.5-0.9-0.5c-0.4,0-0.7,0.2-1,0.6s-0.4,0.9-0.4,1.5H169.4z"/>
	<path class="st6" d="M179,44.6h-1.8v-4.5c0-1,0-1.6-0.1-1.8c-0.1-0.3-0.2-0.5-0.4-0.7s-0.4-0.2-0.6-0.2c-0.3,0-0.6,0.1-0.8,0.3
		c-0.2,0.2-0.4,0.5-0.5,0.9c-0.1,0.4-0.1,1-0.1,2v4h-1.8v-8.8h1.7v1.3c0.6-1,1.4-1.5,2.3-1.5c0.4,0,0.8,0.1,1.1,0.3
		c0.3,0.2,0.6,0.4,0.8,0.7c0.2,0.3,0.3,0.6,0.4,1c0.1,0.4,0.1,0.9,0.1,1.6V44.6z"/>
	<path class="st6" d="M182.7,44.6l-2.8-8.8h1.9l1.3,4.5l0.4,1.5c0.1-0.4,0.2-0.6,0.2-0.8c0.1-0.2,0.1-0.5,0.2-0.7l1.3-4.5h1.9
		l-2.7,8.8H182.7z"/>
	<path class="st6" d="M192.2,41.8l1.8,0.4c-0.2,0.9-0.6,1.5-1.1,1.9c-0.5,0.4-1.1,0.7-1.9,0.7c-1.2,0-2.1-0.5-2.6-1.5
		c-0.5-0.8-0.7-1.8-0.7-3c0-1.5,0.3-2.6,0.9-3.4c0.6-0.8,1.3-1.2,2.3-1.2c1,0,1.8,0.4,2.4,1.3c0.6,0.9,0.9,2.2,0.8,4h-4.5
		c0,0.7,0.2,1.2,0.4,1.6c0.3,0.4,0.6,0.6,1,0.6c0.3,0,0.5-0.1,0.7-0.3S192.1,42.3,192.2,41.8z M192.3,39.5c0-0.7-0.1-1.2-0.4-1.5
		c-0.3-0.4-0.6-0.5-0.9-0.5c-0.4,0-0.7,0.2-1,0.6s-0.4,0.9-0.4,1.5H192.3z"/>
	<path class="st6" d="M201.8,44.6H200v-4.5c0-1,0-1.6-0.1-1.8c-0.1-0.3-0.2-0.5-0.4-0.7s-0.4-0.2-0.6-0.2c-0.3,0-0.6,0.1-0.8,0.3
		c-0.2,0.2-0.4,0.5-0.5,0.9c-0.1,0.4-0.1,1-0.1,2v4h-1.8v-8.8h1.7v1.3c0.6-1,1.4-1.5,2.3-1.5c0.4,0,0.8,0.1,1.1,0.3
		c0.3,0.2,0.6,0.4,0.8,0.7c0.2,0.3,0.3,0.6,0.4,1c0.1,0.4,0.1,0.9,0.1,1.6V44.6z"/>
	<path class="st6" d="M208.2,44.6v-1.3c-0.2,0.5-0.6,0.8-1,1.1s-0.8,0.4-1.3,0.4c-0.5,0-0.9-0.1-1.2-0.4s-0.6-0.6-0.8-1.1
		s-0.2-1.1-0.2-2v-5.6h1.8v4.1c0,1.2,0,2,0.1,2.3c0.1,0.3,0.2,0.5,0.4,0.7c0.2,0.2,0.4,0.2,0.7,0.2c0.3,0,0.6-0.1,0.8-0.3
		c0.2-0.2,0.4-0.5,0.5-0.8c0.1-0.3,0.1-1.1,0.1-2.4v-3.7h1.8v8.8H208.2z"/>
	<path class="st6" d="M215.7,41.8l1.8,0.4c-0.2,0.9-0.6,1.5-1.1,1.9c-0.5,0.4-1.1,0.7-1.9,0.7c-1.2,0-2.1-0.5-2.6-1.5
		c-0.5-0.8-0.7-1.8-0.7-3c0-1.5,0.3-2.6,0.9-3.4c0.6-0.8,1.3-1.2,2.3-1.2c1,0,1.8,0.4,2.4,1.3c0.6,0.9,0.9,2.2,0.8,4h-4.5
		c0,0.7,0.2,1.2,0.4,1.6c0.3,0.4,0.6,0.6,1,0.6c0.3,0,0.5-0.1,0.7-0.3C215.5,42.6,215.6,42.3,215.7,41.8z M215.8,39.5
		c0-0.7-0.1-1.2-0.4-1.5c-0.3-0.4-0.6-0.5-0.9-0.5c-0.4,0-0.7,0.2-1,0.6s-0.4,0.9-0.4,1.5H215.8z"/>
	<path class="st6" d="M222.2,42.1l1.8-0.4c0.1,0.5,0.2,0.8,0.5,1c0.2,0.2,0.6,0.4,1,0.4c0.5,0,0.8-0.1,1.1-0.3
		c0.2-0.2,0.2-0.4,0.2-0.6c0-0.2,0-0.3-0.1-0.4c-0.1-0.1-0.3-0.2-0.6-0.3c-1.5-0.4-2.4-0.8-2.8-1.1c-0.5-0.5-0.8-1.1-0.8-2
		c0-0.8,0.2-1.4,0.7-1.9c0.5-0.5,1.2-0.8,2.2-0.8c0.9,0,1.6,0.2,2.1,0.6s0.8,1,0.9,1.7l-1.7,0.4c-0.1-0.3-0.2-0.6-0.4-0.8
		c-0.2-0.2-0.5-0.3-0.9-0.3c-0.5,0-0.8,0.1-1,0.3c-0.1,0.1-0.2,0.3-0.2,0.5c0,0.2,0.1,0.3,0.2,0.4c0.2,0.2,0.7,0.4,1.7,0.7
		s1.6,0.6,2,1c0.4,0.4,0.6,1,0.6,1.7c0,0.8-0.3,1.5-0.8,2.1s-1.3,0.9-2.3,0.9c-0.9,0-1.7-0.2-2.2-0.7S222.3,42.9,222.2,42.1z"/>
	<path class="st6" d="M234.7,44.6v-1.3c-0.2,0.5-0.6,0.8-1,1.1s-0.8,0.4-1.3,0.4c-0.5,0-0.9-0.1-1.2-0.4c-0.4-0.3-0.6-0.6-0.8-1.1
		c-0.2-0.5-0.2-1.1-0.2-2v-5.6h1.8v4.1c0,1.2,0,2,0.1,2.3c0.1,0.3,0.2,0.5,0.4,0.7c0.2,0.2,0.4,0.2,0.7,0.2c0.3,0,0.6-0.1,0.8-0.3
		c0.2-0.2,0.4-0.5,0.5-0.8c0.1-0.3,0.1-1.1,0.1-2.4v-3.7h1.8v8.8H234.7z"/>
	<path class="st6" d="M240,44.6h-1.8v-8.8h1.7v1.3c0.3-0.6,0.5-1,0.8-1.2s0.5-0.3,0.8-0.3c0.4,0,0.8,0.1,1.2,0.4l-0.6,2
		c-0.3-0.3-0.6-0.4-0.9-0.4c-0.3,0-0.5,0.1-0.6,0.3c-0.2,0.2-0.3,0.5-0.4,1s-0.2,1.5-0.2,3V44.6z"/>
	<path d="M253.4,44.6h-1.7v-1.3c-0.3,0.5-0.6,0.9-1,1.1c-0.4,0.2-0.8,0.4-1.2,0.4c-0.8,0-1.5-0.4-2-1.2c-0.6-0.8-0.8-2-0.8-3.4
		c0-1.5,0.3-2.6,0.8-3.4c0.5-0.8,1.2-1.2,2.1-1.2c0.8,0,1.4,0.4,2,1.2v-4.4h1.8V44.6z M248.6,40c0,0.9,0.1,1.6,0.3,2
		c0.3,0.6,0.7,0.9,1.2,0.9c0.4,0,0.8-0.2,1.1-0.7c0.3-0.5,0.4-1.1,0.4-2c0-1-0.1-1.7-0.4-2.2c-0.3-0.4-0.6-0.7-1.1-0.7
		c-0.4,0-0.8,0.2-1.1,0.7C248.7,38.5,248.6,39.1,248.6,40z"/>
	<path d="M255.2,34.6v-2.2h1.8v2.2H255.2z M255.2,44.6v-8.8h1.8v8.8H255.2z"/>
	<path d="M258.9,35.8h1.7v1.3c0.2-0.4,0.5-0.8,0.9-1.1s0.8-0.4,1.2-0.4c0.8,0,1.5,0.4,2,1.2c0.6,0.8,0.8,1.9,0.8,3.4
		c0,1.5-0.3,2.6-0.8,3.4c-0.6,0.8-1.2,1.2-2,1.2c-0.4,0-0.7-0.1-1-0.3c-0.3-0.2-0.6-0.5-1-1V48h-1.8V35.8z M260.7,40.1
		c0,1,0.2,1.7,0.5,2.2c0.3,0.5,0.7,0.7,1.1,0.7c0.4,0,0.8-0.2,1.1-0.7c0.3-0.4,0.4-1.1,0.4-2.1c0-0.9-0.1-1.6-0.4-2.1
		c-0.3-0.4-0.6-0.7-1.1-0.7c-0.4,0-0.8,0.2-1.1,0.7C260.8,38.5,260.7,39.2,260.7,40.1z"/>
	<path d="M267,44.6V32.4h1.8v12.2H267z"/>
	<path d="M270.3,40.1c0-0.8,0.1-1.5,0.4-2.2s0.7-1.3,1.3-1.7s1.2-0.6,1.8-0.6c1,0,1.9,0.4,2.6,1.3c0.7,0.9,1,2,1,3.3
		c0,1.3-0.3,2.4-1,3.3c-0.7,0.9-1.5,1.3-2.5,1.3c-0.6,0-1.2-0.2-1.8-0.5c-0.6-0.4-1-0.9-1.3-1.6C270.4,42,270.3,41.1,270.3,40.1z
		 M272.1,40.2c0,0.9,0.2,1.5,0.5,2c0.3,0.5,0.7,0.7,1.2,0.7s0.9-0.2,1.2-0.7c0.3-0.5,0.5-1.1,0.5-2c0-0.9-0.2-1.5-0.5-2
		c-0.3-0.5-0.7-0.7-1.2-0.7s-0.9,0.2-1.2,0.7C272.3,38.7,272.1,39.3,272.1,40.2z"/>
	<path d="M278.7,35.8h1.7V37c0.6-0.9,1.3-1.4,2.1-1.4c0.4,0,0.8,0.1,1.1,0.3c0.3,0.2,0.6,0.6,0.8,1.1c0.3-0.5,0.6-0.8,1-1.1
		s0.7-0.3,1.1-0.3c0.5,0,0.9,0.1,1.3,0.4c0.3,0.3,0.6,0.6,0.8,1.2c0.1,0.4,0.2,1,0.2,1.8v5.6h-1.8v-5c0-0.9-0.1-1.4-0.2-1.7
		c-0.2-0.3-0.4-0.5-0.8-0.5c-0.3,0-0.5,0.1-0.7,0.3c-0.2,0.2-0.4,0.5-0.5,0.9c-0.1,0.4-0.1,1-0.1,1.8v4.2h-1.8v-4.8
		c0-0.9,0-1.4-0.1-1.7c-0.1-0.2-0.2-0.4-0.3-0.6s-0.3-0.2-0.6-0.2c-0.3,0-0.5,0.1-0.8,0.3c-0.2,0.2-0.4,0.5-0.5,0.8s-0.1,1-0.1,1.8
		v4.3h-1.8V35.8z"/>
	<path d="M294.5,41.8l1.8,0.4c-0.2,0.9-0.6,1.5-1.1,1.9c-0.5,0.4-1.1,0.7-1.9,0.7c-1.2,0-2.1-0.5-2.6-1.5c-0.5-0.8-0.7-1.8-0.7-3
		c0-1.5,0.3-2.6,0.9-3.4c0.6-0.8,1.3-1.2,2.3-1.2c1,0,1.8,0.4,2.4,1.3c0.6,0.9,0.9,2.2,0.8,4h-4.5c0,0.7,0.2,1.2,0.4,1.6
		c0.3,0.4,0.6,0.6,1,0.6c0.3,0,0.5-0.1,0.7-0.3C294.3,42.6,294.4,42.3,294.5,41.8z M294.6,39.5c0-0.7-0.1-1.2-0.4-1.5
		c-0.3-0.4-0.6-0.5-0.9-0.5c-0.4,0-0.7,0.2-1,0.6c-0.3,0.4-0.4,0.9-0.4,1.5H294.6z"/>
	<path d="M297.9,44.6v-2.3h1.8v2.3H297.9z"/>
	<path d="M301.6,34.6v-2.2h1.8v2.2H301.6z M301.6,44.6v-8.8h1.8v8.8H301.6z"/>
	<path d="M309.8,44.6v-1.3c-0.2,0.5-0.6,0.8-1,1.1s-0.8,0.4-1.3,0.4c-0.5,0-0.9-0.1-1.2-0.4c-0.4-0.3-0.6-0.6-0.8-1.1
		c-0.2-0.5-0.2-1.1-0.2-2v-5.6h1.8v4.1c0,1.2,0,2,0.1,2.3c0.1,0.3,0.2,0.5,0.4,0.7c0.2,0.2,0.4,0.2,0.7,0.2c0.3,0,0.6-0.1,0.8-0.3
		c0.2-0.2,0.4-0.5,0.5-0.8c0.1-0.3,0.1-1.1,0.1-2.4v-3.7h1.8v8.8H309.8z"/>
	<path d="M314.8,38.5l-1.6-0.4c0.2-0.9,0.5-1.5,1-1.9s1.1-0.6,2-0.6c0.8,0,1.4,0.1,1.8,0.4c0.4,0.2,0.7,0.6,0.8,0.9
		c0.2,0.4,0.2,1.1,0.2,2.1l0,2.7c0,0.8,0,1.3,0.1,1.7c0.1,0.4,0.2,0.8,0.3,1.2h-1.8c0-0.2-0.1-0.4-0.2-0.7c0-0.1-0.1-0.2-0.1-0.3
		c-0.3,0.4-0.6,0.7-1,0.9c-0.4,0.2-0.7,0.3-1.1,0.3c-0.7,0-1.3-0.2-1.7-0.7s-0.6-1.1-0.6-1.9c0-0.5,0.1-0.9,0.3-1.3
		c0.2-0.4,0.4-0.7,0.8-0.9c0.3-0.2,0.8-0.4,1.4-0.5c0.8-0.2,1.4-0.4,1.8-0.6v-0.2c0-0.4-0.1-0.8-0.3-1c-0.2-0.2-0.5-0.3-1-0.3
		c-0.3,0-0.6,0.1-0.8,0.2C315,37.8,314.9,38.1,314.8,38.5z M317.2,40.4c-0.2,0.1-0.6,0.2-1.1,0.4s-0.8,0.3-1,0.4
		c-0.2,0.2-0.4,0.5-0.4,0.8c0,0.3,0.1,0.6,0.3,0.8s0.4,0.4,0.7,0.4c0.3,0,0.6-0.1,0.9-0.4c0.2-0.2,0.4-0.5,0.4-0.8
		c0-0.2,0.1-0.6,0.1-1.1V40.4z"/>
	<path d="M320.8,44.6v-2.3h1.8v2.3H320.8z"/>
	<path d="M330.4,38.4l-1.8,0.4c-0.1-0.5-0.2-0.8-0.4-1s-0.5-0.3-0.8-0.3c-0.5,0-0.8,0.2-1.1,0.6c-0.3,0.4-0.4,1.1-0.4,2
		c0,1,0.1,1.8,0.4,2.2s0.6,0.6,1.1,0.6c0.3,0,0.6-0.1,0.8-0.4c0.2-0.3,0.4-0.7,0.5-1.3l1.8,0.4c-0.2,1.1-0.5,1.8-1.1,2.4
		s-1.2,0.8-2.1,0.8c-1,0-1.8-0.4-2.4-1.2c-0.6-0.8-0.9-1.9-0.9-3.4c0-1.5,0.3-2.6,0.9-3.4c0.6-0.8,1.4-1.2,2.4-1.2
		c0.8,0,1.5,0.2,2,0.7C329.9,36.8,330.2,37.5,330.4,38.4z"/>
	<path d="M331.4,40.1c0-0.8,0.1-1.5,0.4-2.2s0.7-1.3,1.3-1.7s1.2-0.6,1.8-0.6c1,0,1.9,0.4,2.6,1.3c0.7,0.9,1,2,1,3.3
		c0,1.3-0.3,2.4-1,3.3c-0.7,0.9-1.5,1.3-2.5,1.3c-0.6,0-1.2-0.2-1.8-0.5c-0.6-0.4-1-0.9-1.3-1.6C331.6,42,331.4,41.1,331.4,40.1z
		 M333.3,40.2c0,0.9,0.2,1.5,0.5,2c0.3,0.5,0.7,0.7,1.2,0.7s0.9-0.2,1.2-0.7c0.3-0.5,0.5-1.1,0.5-2c0-0.9-0.2-1.5-0.5-2
		c-0.3-0.5-0.7-0.7-1.2-0.7s-0.9,0.2-1.2,0.7C333.4,38.7,333.3,39.3,333.3,40.2z"/>
	<path d="M339.8,35.8h1.7V37c0.6-0.9,1.3-1.4,2.1-1.4c0.4,0,0.8,0.1,1.1,0.3c0.3,0.2,0.6,0.6,0.8,1.1c0.3-0.5,0.6-0.8,1-1.1
		s0.7-0.3,1.1-0.3c0.5,0,0.9,0.1,1.3,0.4c0.3,0.3,0.6,0.6,0.8,1.2c0.1,0.4,0.2,1,0.2,1.8v5.6h-1.8v-5c0-0.9-0.1-1.4-0.2-1.7
		c-0.2-0.3-0.4-0.5-0.8-0.5c-0.3,0-0.5,0.1-0.7,0.3c-0.2,0.2-0.4,0.5-0.5,0.9c-0.1,0.4-0.1,1-0.1,1.8v4.2h-1.8v-4.8
		c0-0.9,0-1.4-0.1-1.7c-0.1-0.2-0.2-0.4-0.3-0.6s-0.3-0.2-0.6-0.2c-0.3,0-0.5,0.1-0.8,0.3c-0.2,0.2-0.4,0.5-0.5,0.8s-0.1,1-0.1,1.8
		v4.3h-1.8V35.8z"/>
</g>
<g>
	<path class="st9" d="M141.8,79.6v-5.7h1.2v4.7h2.9v1H141.8z"/>
	<path class="st9" d="M147.4,76.7l-1-0.2c0.1-0.4,0.3-0.7,0.6-0.9s0.7-0.3,1.2-0.3c0.5,0,0.9,0.1,1.1,0.2s0.4,0.3,0.5,0.4
		s0.1,0.5,0.1,1l0,1.3c0,0.4,0,0.6,0.1,0.8s0.1,0.4,0.2,0.6h-1.1c0-0.1-0.1-0.2-0.1-0.3c0-0.1,0-0.1,0-0.1c-0.2,0.2-0.4,0.3-0.6,0.4
		s-0.4,0.1-0.7,0.1c-0.4,0-0.8-0.1-1-0.3s-0.4-0.5-0.4-0.9c0-0.2,0.1-0.4,0.2-0.6s0.3-0.3,0.5-0.4s0.5-0.2,0.9-0.3
		c0.5-0.1,0.9-0.2,1.1-0.3v-0.1c0-0.2-0.1-0.4-0.2-0.5s-0.3-0.1-0.6-0.1c-0.2,0-0.3,0-0.5,0.1S147.4,76.5,147.4,76.7z M148.8,77.6
		c-0.1,0-0.4,0.1-0.7,0.2s-0.5,0.1-0.6,0.2c-0.1,0.1-0.2,0.2-0.2,0.4c0,0.2,0.1,0.3,0.2,0.4s0.3,0.2,0.4,0.2c0.2,0,0.4-0.1,0.6-0.2
		c0.1-0.1,0.2-0.2,0.3-0.4c0-0.1,0-0.3,0-0.5V77.6z"/>
	<path class="st9" d="M152.9,75.5h1v0.6c0.1-0.2,0.3-0.4,0.5-0.5s0.5-0.2,0.8-0.2c0.5,0,0.9,0.2,1.2,0.6s0.5,0.9,0.5,1.6
		c0,0.7-0.2,1.2-0.5,1.6s-0.7,0.6-1.2,0.6c-0.2,0-0.4,0-0.6-0.1s-0.4-0.2-0.6-0.5v2.1h-1.1V75.5z M154,77.5c0,0.5,0.1,0.8,0.3,1
		s0.4,0.3,0.7,0.3c0.3,0,0.5-0.1,0.6-0.3s0.3-0.5,0.3-1c0-0.4-0.1-0.8-0.3-1s-0.4-0.3-0.6-0.3c-0.3,0-0.5,0.1-0.7,0.3
		S154,77.1,154,77.5z"/>
	<path class="st9" d="M157.6,79.6v-5.7h1.1v5.7H157.6z"/>
	<path class="st9" d="M160.5,76.7l-1-0.2c0.1-0.4,0.3-0.7,0.6-0.9s0.7-0.3,1.2-0.3c0.5,0,0.9,0.1,1.1,0.2s0.4,0.3,0.5,0.4
		s0.1,0.5,0.1,1l0,1.3c0,0.4,0,0.6,0.1,0.8s0.1,0.4,0.2,0.6h-1.1c0-0.1-0.1-0.2-0.1-0.3c0-0.1,0-0.1,0-0.1c-0.2,0.2-0.4,0.3-0.6,0.4
		s-0.4,0.1-0.7,0.1c-0.4,0-0.8-0.1-1-0.3s-0.4-0.5-0.4-0.9c0-0.2,0.1-0.4,0.2-0.6s0.3-0.3,0.5-0.4s0.5-0.2,0.9-0.3
		c0.5-0.1,0.9-0.2,1.1-0.3v-0.1c0-0.2-0.1-0.4-0.2-0.5s-0.3-0.1-0.6-0.1c-0.2,0-0.3,0-0.5,0.1S160.6,76.5,160.5,76.7z M162,77.6
		c-0.1,0-0.4,0.1-0.7,0.2s-0.5,0.1-0.6,0.2c-0.1,0.1-0.2,0.2-0.2,0.4c0,0.2,0.1,0.3,0.2,0.4s0.3,0.2,0.4,0.2c0.2,0,0.4-0.1,0.6-0.2
		c0.1-0.1,0.2-0.2,0.3-0.4c0-0.1,0-0.3,0-0.5V77.6z"/>
	<path class="st9" d="M165.9,75.5v0.9h-0.8V78c0,0.3,0,0.5,0,0.6s0,0.1,0.1,0.1s0.1,0.1,0.2,0.1c0.1,0,0.2,0,0.4-0.1l0.1,0.9
		c-0.3,0.1-0.5,0.2-0.9,0.2c-0.2,0-0.4,0-0.5-0.1s-0.3-0.2-0.3-0.3s-0.1-0.2-0.2-0.4c0-0.1,0-0.4,0-0.8v-1.8h-0.5v-0.9h0.5v-0.8
		l1.1-0.6v1.5H165.9z"/>
	<path class="st9" d="M168.9,78.3l1.1,0.2c-0.1,0.4-0.4,0.7-0.7,0.9s-0.7,0.3-1.1,0.3c-0.7,0-1.3-0.2-1.6-0.7
		c-0.3-0.4-0.4-0.9-0.4-1.4c0-0.7,0.2-1.2,0.5-1.6s0.8-0.6,1.4-0.6c0.6,0,1.1,0.2,1.5,0.6s0.5,1,0.5,1.9h-2.8c0,0.3,0.1,0.6,0.3,0.8
		s0.4,0.3,0.6,0.3c0.2,0,0.3,0,0.4-0.1S168.9,78.5,168.9,78.3z M169,77.2c0-0.3-0.1-0.6-0.2-0.7s-0.3-0.2-0.6-0.2
		c-0.2,0-0.4,0.1-0.6,0.3s-0.2,0.4-0.2,0.7H169z"/>
	<path class="st9" d="M170.3,75.5h0.6v-0.3c0-0.3,0-0.6,0.1-0.8s0.2-0.3,0.4-0.4s0.5-0.2,0.8-0.2c0.3,0,0.6,0,0.9,0.1l-0.1,0.8
		c-0.2,0-0.3-0.1-0.5-0.1c-0.2,0-0.3,0-0.3,0.1S172,75,172,75.2v0.3h0.8v0.9H172v3.3h-1.1v-3.3h-0.6V75.5z"/>
	<path class="st9" d="M173.1,77.5c0-0.4,0.1-0.7,0.3-1.1s0.4-0.6,0.8-0.8s0.7-0.3,1.1-0.3c0.6,0,1.1,0.2,1.5,0.6s0.6,0.9,0.6,1.5
		c0,0.6-0.2,1.1-0.6,1.6s-0.9,0.6-1.5,0.6c-0.4,0-0.7-0.1-1.1-0.3s-0.6-0.4-0.8-0.8S173.1,77.9,173.1,77.5z M174.2,77.5
		c0,0.4,0.1,0.7,0.3,0.9s0.4,0.3,0.7,0.3s0.5-0.1,0.7-0.3s0.3-0.5,0.3-1c0-0.4-0.1-0.7-0.3-0.9s-0.4-0.3-0.7-0.3s-0.5,0.1-0.7,0.3
		S174.2,77.1,174.2,77.5z"/>
	<path class="st9" d="M179.1,79.6H178v-4.1h1V76c0.2-0.3,0.3-0.5,0.5-0.6s0.3-0.1,0.5-0.1c0.2,0,0.5,0.1,0.7,0.2l-0.3,1
		c-0.2-0.1-0.4-0.2-0.5-0.2c-0.2,0-0.3,0-0.4,0.1s-0.2,0.2-0.3,0.5s-0.1,0.7-0.1,1.4V79.6z"/>
	<path class="st9" d="M180.9,75.5h1V76c0.4-0.4,0.8-0.7,1.3-0.7c0.3,0,0.5,0.1,0.7,0.2s0.4,0.3,0.5,0.5c0.2-0.2,0.4-0.4,0.6-0.5
		s0.4-0.2,0.7-0.2c0.3,0,0.6,0.1,0.8,0.2s0.4,0.3,0.5,0.5c0.1,0.2,0.1,0.5,0.1,0.9v2.7H186v-2.4c0-0.4,0-0.7-0.1-0.8
		c-0.1-0.2-0.3-0.2-0.5-0.2c-0.2,0-0.3,0-0.4,0.1s-0.2,0.2-0.3,0.4s-0.1,0.5-0.1,0.9v2h-1.1v-2.3c0-0.4,0-0.7-0.1-0.8
		s-0.1-0.2-0.2-0.3s-0.2-0.1-0.3-0.1c-0.2,0-0.3,0-0.5,0.1s-0.2,0.2-0.3,0.4s-0.1,0.5-0.1,0.9v2h-1.1V75.5z"/>
	<path class="st9" d="M190.4,78.3l1.1,0.2c-0.1,0.4-0.4,0.7-0.7,0.9s-0.7,0.3-1.1,0.3c-0.7,0-1.3-0.2-1.6-0.7
		c-0.3-0.4-0.4-0.9-0.4-1.4c0-0.7,0.2-1.2,0.5-1.6s0.8-0.6,1.4-0.6c0.6,0,1.1,0.2,1.5,0.6s0.5,1,0.5,1.9h-2.8c0,0.3,0.1,0.6,0.3,0.8
		s0.4,0.3,0.6,0.3c0.2,0,0.3,0,0.4-0.1S190.3,78.5,190.4,78.3z M190.5,77.2c0-0.3-0.1-0.6-0.2-0.7s-0.3-0.2-0.6-0.2
		c-0.2,0-0.4,0.1-0.6,0.3s-0.2,0.4-0.2,0.7H190.5z"/>
	<path class="st9" d="M198.2,79.6h-1V79c-0.2,0.2-0.4,0.4-0.6,0.5s-0.5,0.2-0.7,0.2c-0.5,0-0.9-0.2-1.2-0.6s-0.5-0.9-0.5-1.6
		c0-0.7,0.2-1.2,0.5-1.6s0.7-0.5,1.3-0.5c0.5,0,0.9,0.2,1.2,0.6v-2.1h1.1V79.6z M195.2,77.4c0,0.4,0.1,0.8,0.2,1
		c0.2,0.3,0.4,0.4,0.7,0.4c0.3,0,0.5-0.1,0.6-0.3s0.3-0.5,0.3-1c0-0.5-0.1-0.8-0.3-1s-0.4-0.3-0.7-0.3c-0.3,0-0.5,0.1-0.7,0.3
		S195.2,77,195.2,77.4z"/>
	<path class="st9" d="M201.5,78.3l1.1,0.2c-0.1,0.4-0.4,0.7-0.7,0.9s-0.7,0.3-1.1,0.3c-0.7,0-1.3-0.2-1.6-0.7
		c-0.3-0.4-0.4-0.9-0.4-1.4c0-0.7,0.2-1.2,0.5-1.6s0.8-0.6,1.4-0.6c0.6,0,1.1,0.2,1.5,0.6s0.5,1,0.5,1.9h-2.8c0,0.3,0.1,0.6,0.3,0.8
		s0.4,0.3,0.6,0.3c0.2,0,0.3,0,0.4-0.1S201.4,78.5,201.5,78.3z M201.6,77.2c0-0.3-0.1-0.6-0.2-0.7s-0.3-0.2-0.6-0.2
		c-0.2,0-0.4,0.1-0.6,0.3s-0.2,0.4-0.2,0.7H201.6z"/>
	<path class="st9" d="M203,78.4l1.1-0.2c0,0.2,0.1,0.4,0.3,0.5s0.3,0.2,0.6,0.2c0.3,0,0.5-0.1,0.6-0.2c0.1-0.1,0.1-0.2,0.1-0.3
		c0-0.1,0-0.2-0.1-0.2c-0.1-0.1-0.2-0.1-0.4-0.1c-0.9-0.2-1.4-0.4-1.7-0.5c-0.3-0.2-0.5-0.5-0.5-0.9c0-0.4,0.1-0.7,0.4-0.9
		s0.7-0.4,1.3-0.4c0.6,0,1,0.1,1.3,0.3s0.5,0.5,0.6,0.8l-1,0.2c0-0.2-0.1-0.3-0.3-0.4s-0.3-0.1-0.5-0.1c-0.3,0-0.5,0-0.6,0.1
		c-0.1,0.1-0.1,0.1-0.1,0.2c0,0.1,0,0.1,0.1,0.2c0.1,0.1,0.4,0.2,1,0.3s1,0.3,1.2,0.5c0.2,0.2,0.3,0.5,0.3,0.8c0,0.4-0.2,0.7-0.5,1
		s-0.8,0.4-1.4,0.4c-0.6,0-1-0.1-1.3-0.3S203.1,78.8,203,78.4z"/>
	<path class="st9" d="M213.6,79.6h-1V79c-0.2,0.2-0.4,0.4-0.6,0.5s-0.5,0.2-0.7,0.2c-0.5,0-0.9-0.2-1.2-0.6s-0.5-0.9-0.5-1.6
		c0-0.7,0.2-1.2,0.5-1.6s0.7-0.5,1.3-0.5c0.5,0,0.9,0.2,1.2,0.6v-2.1h1.1V79.6z M210.6,77.4c0,0.4,0.1,0.8,0.2,1
		c0.2,0.3,0.4,0.4,0.7,0.4c0.3,0,0.5-0.1,0.6-0.3c0.2-0.2,0.3-0.5,0.3-1c0-0.5-0.1-0.8-0.3-1s-0.4-0.3-0.7-0.3
		c-0.3,0-0.5,0.1-0.7,0.3S210.6,77,210.6,77.4z"/>
	<path class="st9" d="M214.5,74.9v-1h1.1v1H214.5z M214.5,79.6v-4.1h1.1v4.1H214.5z"/>
	<path class="st9" d="M216.5,75.5h1v0.6c0.1-0.2,0.3-0.4,0.5-0.5s0.5-0.2,0.8-0.2c0.5,0,0.9,0.2,1.2,0.6s0.5,0.9,0.5,1.6
		c0,0.7-0.2,1.2-0.5,1.6s-0.7,0.6-1.2,0.6c-0.2,0-0.4,0-0.6-0.1s-0.4-0.2-0.6-0.5v2.1h-1.1V75.5z M217.6,77.5c0,0.5,0.1,0.8,0.3,1
		s0.4,0.3,0.7,0.3c0.3,0,0.5-0.1,0.6-0.3s0.3-0.5,0.3-1c0-0.4-0.1-0.8-0.3-1s-0.4-0.3-0.6-0.3c-0.3,0-0.5,0.1-0.7,0.3
		S217.6,77.1,217.6,77.5z"/>
	<path class="st9" d="M221.3,79.6v-5.7h1.1v5.7H221.3z"/>
	<path class="st9" d="M223.1,77.5c0-0.4,0.1-0.7,0.3-1.1s0.4-0.6,0.8-0.8s0.7-0.3,1.1-0.3c0.6,0,1.1,0.2,1.5,0.6s0.6,0.9,0.6,1.5
		c0,0.6-0.2,1.1-0.6,1.6s-0.9,0.6-1.5,0.6c-0.4,0-0.7-0.1-1.1-0.3s-0.6-0.4-0.8-0.8S223.1,77.9,223.1,77.5z M223.9,74.9l0.8-1.2h1
		l0.8,1.2h-0.9l-0.5-0.6l-0.4,0.6H223.9z M224.2,77.5c0,0.4,0.1,0.7,0.3,0.9s0.4,0.3,0.7,0.3s0.5-0.1,0.7-0.3s0.3-0.5,0.3-1
		c0-0.4-0.1-0.7-0.3-0.9s-0.4-0.3-0.7-0.3s-0.5,0.1-0.7,0.3S224.2,77.1,224.2,77.5z"/>
	<path class="st9" d="M228,75.5h1V76c0.4-0.4,0.8-0.7,1.3-0.7c0.3,0,0.5,0.1,0.7,0.2s0.4,0.3,0.5,0.5c0.2-0.2,0.4-0.4,0.6-0.5
		s0.4-0.2,0.7-0.2c0.3,0,0.6,0.1,0.8,0.2s0.4,0.3,0.5,0.5c0.1,0.2,0.1,0.5,0.1,0.9v2.7H233v-2.4c0-0.4,0-0.7-0.1-0.8
		c-0.1-0.2-0.3-0.2-0.5-0.2c-0.2,0-0.3,0-0.4,0.1s-0.2,0.2-0.3,0.4s-0.1,0.5-0.1,0.9v2h-1.1v-2.3c0-0.4,0-0.7-0.1-0.8
		s-0.1-0.2-0.2-0.3s-0.2-0.1-0.3-0.1c-0.2,0-0.3,0-0.5,0.1s-0.2,0.2-0.3,0.4s-0.1,0.5-0.1,0.9v2H228V75.5z"/>
	<path class="st9" d="M237.5,78.3l1.1,0.2c-0.1,0.4-0.4,0.7-0.7,0.9s-0.7,0.3-1.1,0.3c-0.7,0-1.3-0.2-1.6-0.7
		c-0.3-0.4-0.4-0.9-0.4-1.4c0-0.7,0.2-1.2,0.5-1.6s0.8-0.6,1.4-0.6c0.6,0,1.1,0.2,1.5,0.6s0.5,1,0.5,1.9h-2.8c0,0.3,0.1,0.6,0.3,0.8
		s0.4,0.3,0.6,0.3c0.2,0,0.3,0,0.4-0.1S237.4,78.5,237.5,78.3z M237.5,77.2c0-0.3-0.1-0.6-0.2-0.7s-0.3-0.2-0.6-0.2
		c-0.2,0-0.4,0.1-0.6,0.3s-0.2,0.4-0.2,0.7H237.5z"/>
	<path class="st9" d="M239,78.4l1.1-0.2c0,0.2,0.1,0.4,0.3,0.5s0.3,0.2,0.6,0.2c0.3,0,0.5-0.1,0.6-0.2c0.1-0.1,0.1-0.2,0.1-0.3
		c0-0.1,0-0.2-0.1-0.2c-0.1-0.1-0.2-0.1-0.4-0.1c-0.9-0.2-1.4-0.4-1.7-0.5c-0.3-0.2-0.5-0.5-0.5-0.9c0-0.4,0.1-0.7,0.4-0.9
		s0.7-0.4,1.3-0.4c0.6,0,1,0.1,1.3,0.3s0.5,0.5,0.6,0.8l-1,0.2c0-0.2-0.1-0.3-0.3-0.4s-0.3-0.1-0.5-0.1c-0.3,0-0.5,0-0.6,0.1
		c-0.1,0.1-0.1,0.1-0.1,0.2c0,0.1,0,0.1,0.1,0.2c0.1,0.1,0.4,0.2,1,0.3s1,0.3,1.2,0.5c0.2,0.2,0.3,0.5,0.3,0.8c0,0.4-0.2,0.7-0.5,1
		s-0.8,0.4-1.4,0.4c-0.6,0-1-0.1-1.3-0.3S239.1,78.8,239,78.4z"/>
	<path class="st9" d="M249.5,79.6h-1V79c-0.2,0.2-0.4,0.4-0.6,0.5s-0.5,0.2-0.7,0.2c-0.5,0-0.9-0.2-1.2-0.6s-0.5-0.9-0.5-1.6
		c0-0.7,0.2-1.2,0.5-1.6s0.7-0.5,1.3-0.5c0.5,0,0.9,0.2,1.2,0.6v-2.1h1.1V79.6z M246.6,77.4c0,0.4,0.1,0.8,0.2,1
		c0.2,0.3,0.4,0.4,0.7,0.4c0.3,0,0.5-0.1,0.6-0.3s0.3-0.5,0.3-1c0-0.5-0.1-0.8-0.3-1s-0.4-0.3-0.7-0.3c-0.3,0-0.5,0.1-0.7,0.3
		S246.6,77,246.6,77.4z"/>
	<path class="st9" d="M252.9,78.3l1.1,0.2c-0.1,0.4-0.4,0.7-0.7,0.9s-0.7,0.3-1.1,0.3c-0.7,0-1.3-0.2-1.6-0.7
		c-0.3-0.4-0.4-0.9-0.4-1.4c0-0.7,0.2-1.2,0.5-1.6s0.8-0.6,1.4-0.6c0.6,0,1.1,0.2,1.5,0.6s0.5,1,0.5,1.9h-2.8c0,0.3,0.1,0.6,0.3,0.8
		s0.4,0.3,0.6,0.3c0.2,0,0.3,0,0.4-0.1S252.8,78.5,252.9,78.3z M252.9,77.2c0-0.3-0.1-0.6-0.2-0.7s-0.3-0.2-0.6-0.2
		c-0.2,0-0.4,0.1-0.6,0.3s-0.2,0.4-0.2,0.7H252.9z"/>
	<path class="st9" d="M256.8,79.6v-5.7h1.1v5.7H256.8z"/>
	<path class="st9" d="M258.9,75.9l-0.2-1.1v-1h1.2v1l-0.2,1.1H258.9z"/>
	<path class="st9" d="M260.6,79.6v-5.7h1.2v5.7H260.6z"/>
	<path class="st9" d="M266.5,79.6h-1.1v-2.1c0-0.4,0-0.7-0.1-0.9s-0.1-0.2-0.2-0.3s-0.2-0.1-0.4-0.1c-0.2,0-0.4,0.1-0.5,0.2
		s-0.3,0.2-0.3,0.4s-0.1,0.5-0.1,1v1.9h-1.1v-4.1h1v0.6c0.4-0.5,0.8-0.7,1.4-0.7c0.2,0,0.5,0,0.7,0.1s0.4,0.2,0.5,0.3
		s0.2,0.3,0.2,0.5s0.1,0.4,0.1,0.7V79.6z"/>
	<path class="st9" d="M267.1,78.4l1.1-0.2c0,0.2,0.1,0.4,0.3,0.5s0.3,0.2,0.6,0.2c0.3,0,0.5-0.1,0.6-0.2c0.1-0.1,0.1-0.2,0.1-0.3
		c0-0.1,0-0.2-0.1-0.2c-0.1-0.1-0.2-0.1-0.4-0.1c-0.9-0.2-1.4-0.4-1.7-0.5c-0.3-0.2-0.5-0.5-0.5-0.9c0-0.4,0.1-0.7,0.4-0.9
		s0.7-0.4,1.3-0.4c0.6,0,1,0.1,1.3,0.3s0.5,0.5,0.6,0.8l-1,0.2c0-0.2-0.1-0.3-0.3-0.4s-0.3-0.1-0.5-0.1c-0.3,0-0.5,0-0.6,0.1
		c-0.1,0.1-0.1,0.1-0.1,0.2c0,0.1,0,0.1,0.1,0.2c0.1,0.1,0.4,0.2,1,0.3s1,0.3,1.2,0.5c0.2,0.2,0.3,0.5,0.3,0.8c0,0.4-0.2,0.7-0.5,1
		s-0.8,0.4-1.4,0.4c-0.6,0-1-0.1-1.3-0.3S267.2,78.8,267.1,78.4z"/>
	<path class="st9" d="M273.7,75.5v0.9h-0.8V78c0,0.3,0,0.5,0,0.6s0,0.1,0.1,0.1s0.1,0.1,0.2,0.1c0.1,0,0.2,0,0.4-0.1l0.1,0.9
		c-0.3,0.1-0.5,0.2-0.9,0.2c-0.2,0-0.4,0-0.5-0.1s-0.3-0.2-0.3-0.3s-0.1-0.2-0.2-0.4c0-0.1,0-0.4,0-0.8v-1.8h-0.5v-0.9h0.5v-0.8
		l1.1-0.6v1.5H273.7z"/>
	<path class="st9" d="M274.3,74.9v-1h1.1v1H274.3z M274.3,79.6v-4.1h1.1v4.1H274.3z"/>
	<path class="st9" d="M278.2,75.5v0.9h-0.8V78c0,0.3,0,0.5,0,0.6s0,0.1,0.1,0.1s0.1,0.1,0.2,0.1c0.1,0,0.2,0,0.4-0.1l0.1,0.9
		c-0.3,0.1-0.5,0.2-0.9,0.2c-0.2,0-0.4,0-0.5-0.1s-0.3-0.2-0.3-0.3s-0.1-0.2-0.2-0.4c0-0.1,0-0.4,0-0.8v-1.8h-0.5v-0.9h0.5v-0.8
		l1.1-0.6v1.5H278.2z"/>
	<path class="st9" d="M281.6,79.6V79c-0.2,0.2-0.3,0.4-0.6,0.5s-0.5,0.2-0.8,0.2c-0.3,0-0.5-0.1-0.8-0.2s-0.4-0.3-0.5-0.5
		s-0.1-0.5-0.1-0.9v-2.6h1.1v1.9c0,0.6,0,0.9,0.1,1.1s0.1,0.2,0.2,0.3s0.2,0.1,0.4,0.1c0.2,0,0.4-0.1,0.5-0.2s0.2-0.2,0.3-0.4
		s0.1-0.5,0.1-1.1v-1.8h1.1v4.1H281.6z"/>
	<path class="st9" d="M285.5,75.5v0.9h-0.8V78c0,0.3,0,0.5,0,0.6s0,0.1,0.1,0.1s0.1,0.1,0.2,0.1c0.1,0,0.2,0,0.4-0.1l0.1,0.9
		c-0.3,0.1-0.5,0.2-0.9,0.2c-0.2,0-0.4,0-0.5-0.1s-0.3-0.2-0.3-0.3s-0.1-0.2-0.2-0.4c0-0.1,0-0.4,0-0.8v-1.8h-0.5v-0.9h0.5v-0.8
		l1.1-0.6v1.5H285.5z"/>
	<path class="st9" d="M288.2,73.9h1.2V77c0,0.5,0,0.8,0,1c0,0.2,0.2,0.4,0.4,0.6s0.4,0.2,0.8,0.2c0.3,0,0.6-0.1,0.7-0.2
		s0.3-0.3,0.3-0.5s0.1-0.5,0.1-1v-3.2h1.2v3c0,0.7,0,1.2-0.1,1.5s-0.2,0.5-0.3,0.7s-0.4,0.4-0.7,0.5s-0.6,0.2-1.1,0.2
		c-0.5,0-1-0.1-1.2-0.2s-0.5-0.3-0.7-0.5s-0.3-0.4-0.3-0.6c-0.1-0.3-0.1-0.8-0.1-1.5V73.9z"/>
	<path class="st9" d="M297.6,79.6h-1.1v-2.1c0-0.4,0-0.7-0.1-0.9s-0.1-0.2-0.2-0.3s-0.2-0.1-0.4-0.1c-0.2,0-0.4,0.1-0.5,0.2
		s-0.3,0.2-0.3,0.4s-0.1,0.5-0.1,1v1.9h-1.1v-4.1h1v0.6c0.4-0.5,0.8-0.7,1.4-0.7c0.2,0,0.5,0,0.7,0.1s0.4,0.2,0.5,0.3
		s0.2,0.3,0.2,0.5s0.1,0.4,0.1,0.7V79.6z"/>
	<path class="st9" d="M298.5,74.9v-1h1.1v1H298.5z M298.5,79.6v-4.1h1.1v4.1H298.5z"/>
	<path class="st9" d="M301.7,79.6l-1.7-4.1h1.2l0.8,2.1l0.2,0.7c0.1-0.2,0.1-0.3,0.1-0.4c0-0.1,0.1-0.2,0.1-0.4l0.8-2.1h1.1
		l-1.6,4.1H301.7z"/>
	<path class="st9" d="M307.3,78.3l1.1,0.2c-0.1,0.4-0.4,0.7-0.7,0.9s-0.7,0.3-1.1,0.3c-0.7,0-1.3-0.2-1.6-0.7
		c-0.3-0.4-0.4-0.9-0.4-1.4c0-0.7,0.2-1.2,0.5-1.6s0.8-0.6,1.4-0.6c0.6,0,1.1,0.2,1.5,0.6s0.5,1,0.5,1.9h-2.8c0,0.3,0.1,0.6,0.3,0.8
		s0.4,0.3,0.6,0.3c0.2,0,0.3,0,0.4-0.1S307.2,78.5,307.3,78.3z M307.4,77.2c0-0.3-0.1-0.6-0.2-0.7s-0.3-0.2-0.6-0.2
		c-0.2,0-0.4,0.1-0.6,0.3s-0.2,0.4-0.2,0.7H307.4z"/>
	<path class="st9" d="M310.2,79.6h-1.1v-4.1h1V76c0.2-0.3,0.3-0.5,0.5-0.6s0.3-0.1,0.5-0.1c0.2,0,0.5,0.1,0.7,0.2l-0.3,1
		c-0.2-0.1-0.4-0.2-0.5-0.2c-0.2,0-0.3,0-0.4,0.1s-0.2,0.2-0.3,0.5s-0.1,0.7-0.1,1.4V79.6z"/>
	<path class="st9" d="M311.8,78.4l1.1-0.2c0,0.2,0.1,0.4,0.3,0.5s0.3,0.2,0.6,0.2c0.3,0,0.5-0.1,0.6-0.2c0.1-0.1,0.1-0.2,0.1-0.3
		c0-0.1,0-0.2-0.1-0.2c-0.1-0.1-0.2-0.1-0.4-0.1c-0.9-0.2-1.4-0.4-1.7-0.5c-0.3-0.2-0.5-0.5-0.5-0.9c0-0.4,0.1-0.7,0.4-0.9
		s0.7-0.4,1.3-0.4c0.6,0,1,0.1,1.3,0.3s0.5,0.5,0.6,0.8l-1,0.2c0-0.2-0.1-0.3-0.3-0.4s-0.3-0.1-0.5-0.1c-0.3,0-0.5,0-0.6,0.1
		c-0.1,0.1-0.1,0.1-0.1,0.2c0,0.1,0,0.1,0.1,0.2c0.1,0.1,0.4,0.2,1,0.3s1,0.3,1.2,0.5c0.2,0.2,0.3,0.5,0.3,0.8c0,0.4-0.2,0.7-0.5,1
		s-0.8,0.4-1.4,0.4c-0.6,0-1-0.1-1.3-0.3S311.9,78.8,311.8,78.4z"/>
	<path class="st9" d="M316.5,74.9v-1h1.1v1H316.5z M316.5,79.6v-4.1h1.1v4.1H316.5z"/>
	<path class="st9" d="M320.4,75.5v0.9h-0.8V78c0,0.3,0,0.5,0,0.6s0,0.1,0.1,0.1s0.1,0.1,0.2,0.1c0.1,0,0.2,0,0.4-0.1l0.1,0.9
		c-0.3,0.1-0.5,0.2-0.9,0.2c-0.2,0-0.4,0-0.5-0.1s-0.3-0.2-0.3-0.3s-0.1-0.2-0.2-0.4c0-0.1,0-0.4,0-0.8v-1.8h-0.5v-0.9h0.5v-0.8
		l1.1-0.6v1.5H320.4z"/>
	<path class="st9" d="M321.9,76.7l-1-0.2c0.1-0.4,0.3-0.7,0.6-0.9s0.7-0.3,1.2-0.3c0.5,0,0.9,0.1,1.1,0.2s0.4,0.3,0.5,0.4
		s0.1,0.5,0.1,1l0,1.3c0,0.4,0,0.6,0.1,0.8s0.1,0.4,0.2,0.6h-1.1c0-0.1-0.1-0.2-0.1-0.3c0-0.1,0-0.1,0-0.1c-0.2,0.2-0.4,0.3-0.6,0.4
		s-0.4,0.1-0.7,0.1c-0.4,0-0.8-0.1-1-0.3s-0.4-0.5-0.4-0.9c0-0.2,0.1-0.4,0.2-0.6s0.3-0.3,0.5-0.4s0.5-0.2,0.9-0.3
		c0.5-0.1,0.9-0.2,1.1-0.3v-0.1c0-0.2-0.1-0.4-0.2-0.5s-0.3-0.1-0.6-0.1c-0.2,0-0.3,0-0.5,0.1S321.9,76.5,321.9,76.7z M323.3,77.6
		c-0.1,0-0.4,0.1-0.7,0.2s-0.5,0.1-0.6,0.2c-0.1,0.1-0.2,0.2-0.2,0.4c0,0.2,0.1,0.3,0.2,0.4s0.3,0.2,0.4,0.2c0.2,0,0.4-0.1,0.6-0.2
		c0.1-0.1,0.2-0.2,0.3-0.4c0-0.1,0-0.3,0-0.5V77.6z"/>
	<path class="st9" d="M325.3,74.9v-1h1.1v1H325.3z M325.3,79.6v-4.1h1.1v4.1H325.3z"/>
	<path class="st9" d="M328.5,79.6h-1.1v-4.1h1V76c0.2-0.3,0.3-0.5,0.5-0.6s0.3-0.1,0.5-0.1c0.2,0,0.5,0.1,0.7,0.2l-0.3,1
		c-0.2-0.1-0.4-0.2-0.5-0.2c-0.2,0-0.3,0-0.4,0.1s-0.2,0.2-0.3,0.5s-0.1,0.7-0.1,1.4V79.6z"/>
	<path class="st9" d="M332.8,78.3l1.1,0.2c-0.1,0.4-0.4,0.7-0.7,0.9s-0.7,0.3-1.1,0.3c-0.7,0-1.3-0.2-1.6-0.7
		c-0.3-0.4-0.4-0.9-0.4-1.4c0-0.7,0.2-1.2,0.5-1.6s0.8-0.6,1.4-0.6c0.6,0,1.1,0.2,1.5,0.6s0.5,1,0.5,1.9h-2.8c0,0.3,0.1,0.6,0.3,0.8
		s0.4,0.3,0.6,0.3c0.2,0,0.3,0,0.4-0.1S332.7,78.5,332.8,78.3z M332.8,77.2c0-0.3-0.1-0.6-0.2-0.7s-0.3-0.2-0.6-0.2
		c-0.2,0-0.4,0.1-0.6,0.3s-0.2,0.4-0.2,0.7H332.8z"/>
	<path class="st9" d="M340.5,79.6h-1V79c-0.2,0.2-0.4,0.4-0.6,0.5s-0.5,0.2-0.7,0.2c-0.5,0-0.9-0.2-1.2-0.6s-0.5-0.9-0.5-1.6
		c0-0.7,0.2-1.2,0.5-1.6s0.7-0.5,1.3-0.5c0.5,0,0.9,0.2,1.2,0.6v-2.1h1.1V79.6z M337.6,77.4c0,0.4,0.1,0.8,0.2,1
		c0.2,0.3,0.4,0.4,0.7,0.4c0.3,0,0.5-0.1,0.6-0.3s0.3-0.5,0.3-1c0-0.5-0.1-0.8-0.3-1s-0.4-0.3-0.7-0.3c-0.3,0-0.5,0.1-0.7,0.3
		S337.6,77,337.6,77.4z"/>
	<path class="st9" d="M341.5,75.9l-0.2-1.1v-1h1.2v1l-0.2,1.1H341.5z"/>
	<path class="st9" d="M348.4,79.6h-1.3l-0.5-1.3h-2.3l-0.5,1.3h-1.2l2.2-5.7h1.2L348.4,79.6z M346.3,77.3l-0.8-2.1l-0.8,2.1H346.3z"
		/>
	<path class="st9" d="M348.8,79.6v-5.7h1.1v2.1c0.3-0.4,0.7-0.6,1.2-0.6c0.5,0,0.9,0.2,1.3,0.5s0.5,0.9,0.5,1.6
		c0,0.7-0.2,1.3-0.5,1.6s-0.7,0.6-1.2,0.6c-0.2,0-0.5-0.1-0.7-0.2s-0.4-0.3-0.6-0.5v0.6H348.8z M349.9,77.4c0,0.4,0.1,0.7,0.2,1
		c0.2,0.3,0.4,0.4,0.8,0.4c0.2,0,0.4-0.1,0.6-0.3s0.3-0.5,0.3-1c0-0.5-0.1-0.8-0.3-1s-0.4-0.3-0.7-0.3c-0.3,0-0.5,0.1-0.7,0.3
		S349.9,77,349.9,77.4z"/>
	<path class="st9" d="M353.6,74.9v-1h1.1v1H353.6z M353.6,79.6v-4.1h1.1v4.1H353.6z"/>
	<path class="st9" d="M359.5,79.6h-1V79c-0.2,0.2-0.4,0.4-0.6,0.5s-0.5,0.2-0.7,0.2c-0.5,0-0.9-0.2-1.2-0.6s-0.5-0.9-0.5-1.6
		c0-0.7,0.2-1.2,0.5-1.6s0.7-0.5,1.3-0.5c0.5,0,0.9,0.2,1.2,0.6v-2.1h1.1V79.6z M356.5,77.4c0,0.4,0.1,0.8,0.2,1
		c0.2,0.3,0.4,0.4,0.7,0.4c0.3,0,0.5-0.1,0.6-0.3s0.3-0.5,0.3-1c0-0.5-0.1-0.8-0.3-1s-0.4-0.3-0.7-0.3c-0.3,0-0.5,0.1-0.7,0.3
		S356.5,77,356.5,77.4z"/>
	<path class="st9" d="M361.5,75.5v4c0,0.5,0,0.9-0.1,1.1s-0.2,0.4-0.4,0.5s-0.4,0.2-0.8,0.2c-0.1,0-0.2,0-0.4,0s-0.3,0-0.4-0.1
		l0.2-0.9c0.1,0,0.1,0,0.1,0s0.1,0,0.1,0c0.1,0,0.2,0,0.3-0.1s0.1-0.1,0.1-0.2s0-0.3,0-0.6v-4H361.5z M360.4,74.9v-1h1.1v1H360.4z"
		/>
	<path class="st9" d="M363.3,76.7l-1-0.2c0.1-0.4,0.3-0.7,0.6-0.9s0.7-0.3,1.2-0.3c0.5,0,0.9,0.1,1.1,0.2s0.4,0.3,0.5,0.4
		s0.1,0.5,0.1,1l0,1.3c0,0.4,0,0.6,0.1,0.8s0.1,0.4,0.2,0.6H365c0-0.1-0.1-0.2-0.1-0.3c0-0.1,0-0.1,0-0.1c-0.2,0.2-0.4,0.3-0.6,0.4
		s-0.4,0.1-0.7,0.1c-0.4,0-0.8-0.1-1-0.3s-0.4-0.5-0.4-0.9c0-0.2,0.1-0.4,0.2-0.6s0.3-0.3,0.5-0.4s0.5-0.2,0.9-0.3
		c0.5-0.1,0.9-0.2,1.1-0.3v-0.1c0-0.2-0.1-0.4-0.2-0.5s-0.3-0.1-0.6-0.1c-0.2,0-0.3,0-0.5,0.1S363.3,76.5,363.3,76.7z M364.7,77.6
		c-0.1,0-0.4,0.1-0.7,0.2s-0.5,0.1-0.6,0.2c-0.1,0.1-0.2,0.2-0.2,0.4c0,0.2,0.1,0.3,0.2,0.4s0.3,0.2,0.4,0.2c0.2,0,0.4-0.1,0.6-0.2
		c0.1-0.1,0.2-0.2,0.3-0.4c0-0.1,0-0.3,0-0.5V77.6z"/>
	<path class="st9" d="M370.5,79.6h-1.1v-2.1c0-0.4,0-0.7-0.1-0.9s-0.1-0.2-0.2-0.3s-0.2-0.1-0.4-0.1c-0.2,0-0.4,0.1-0.5,0.2
		s-0.3,0.2-0.3,0.4s-0.1,0.5-0.1,1v1.9h-1.1v-4.1h1v0.6c0.4-0.5,0.8-0.7,1.4-0.7c0.2,0,0.5,0,0.7,0.1s0.4,0.2,0.5,0.3
		s0.2,0.3,0.2,0.5s0.1,0.4,0.1,0.7V79.6z"/>
	<path class="st9" d="M373.6,79.6v-1.1h1.1v1.1H373.6z"/>
</g>
<g>
	<g>
		<path class="st10" d="M54.5,48.8c0,1.3,0,1.5,1.1,1.9c0.4,0.1,0.7,0.5,0.7,0.9c0,1-1.1,1.1-1.2,1.1h-9.3c-0.1,0-1.2-0.1-1.2-1.1
			c0-0.5,0.3-0.8,0.7-0.9c1.1-0.4,1.1-0.6,1.1-1.9V30.7c0-1.3,0-1.5-1.1-1.9c-0.4-0.1-0.7-0.5-0.7-0.9c0-1,1.1-1.1,1.2-1.1h9.3
			c0.1,0,1.2,0.1,1.2,1.1c0,0.5-0.3,0.8-0.7,0.9c-1.1,0.4-1.1,0.6-1.1,1.9V48.8z"/>
		<path class="st10" d="M71.3,53.2c-2.6,0-4.6,0-6.8-1.4c-2.9-1.7-3.3-3.1-3.3-4.8V30.7c0-1.3,0-1.5-1.1-1.9
			c-0.4-0.1-0.7-0.5-0.7-0.9c0-1,1.1-1.1,1.2-1.1h9.3c0.1,0,1.2,0.1,1.2,1.1c0,0.5-0.3,0.8-0.7,0.9c-1.1,0.4-1.1,0.6-1.1,1.9v16.7
			c0,0.3-0.3,3.1,2.2,3.9V53.2z M77.1,32.2c-0.5-4.3-2.6-3-2.6-4.5c0-1.1,1.3-1,1.7-1h3.7c0.4,0,1.7-0.1,1.7,1
			c0,1.5-2.1,0.1-2.6,4.5v13.1c-0.3,5.7-4.2,7.8-6.3,7.8v-2c3-1,4.2-2.8,4.4-5.9V32.2z"/>
		<path class="st10" d="M90.8,35.5l-3.1,11.9c-0.5,2.1-0.1,2.7,1,3.2c0.5,0.2,1,0.5,1,1.1c0,1-1,0.9-1.7,0.9h-3.8
			c-0.7,0-1.8,0-1.8-1c0-0.8,0.6-0.8,1.3-1.2c0.7-0.4,1.6-1.2,2.2-3.6l3.9-15.2h0.1L90.8,35.5z M94.3,46h-4.8l0.5-2h4l-3.3-15.3
			l0.4-1.9h7.2l4.9,21.9c0.2,1,0.2,1.6,1.1,2c0.5,0.2,0.8,0.5,0.8,1.1c0,0.9-1.2,0.9-1.8,0.9h-8.2c-0.7,0-1.6-0.1-1.6-1
			c0-0.6,0.2-0.7,0.6-1c0.9-0.5,1-0.8,0.7-2.1L94.3,46z"/>
	</g>
	<g>
		<path class="st8" d="M54.1,48.8c0,1.3,0,1.5,1.1,1.9c0.4,0.1,0.7,0.5,0.7,0.9c0,1-1.1,1.1-1.2,1.1h-9.3c-0.1,0-1.2-0.1-1.2-1.1
			c0-0.5,0.3-0.8,0.7-0.9c1.1-0.4,1.1-0.6,1.1-1.9V30.7c0-1.3,0-1.5-1.1-1.9c-0.4-0.1-0.7-0.5-0.7-0.9c0-1,1.1-1.1,1.2-1.1h9.3
			c0.1,0,1.2,0.1,1.2,1.1c0,0.5-0.3,0.8-0.7,0.9c-1.1,0.4-1.1,0.6-1.1,1.9V48.8z"/>
		<path class="st8" d="M70.9,53.2c-2.6,0-4.6,0-6.8-1.4c-2.9-1.7-3.3-3.1-3.3-4.8V30.7c0-1.3,0-1.5-1.1-1.9
			c-0.4-0.1-0.7-0.5-0.7-0.9c0-1,1.1-1.1,1.2-1.1h9.3c0.1,0,1.2,0.1,1.2,1.1c0,0.5-0.3,0.8-0.7,0.9c-1.1,0.4-1.1,0.6-1.1,1.9v16.7
			c0,0.3-0.3,3.1,2.2,3.9V53.2z M76.7,32.2c-0.5-4.3-2.6-3-2.6-4.5c0-1.1,1.3-1,1.7-1h3.7c0.4,0,1.7-0.1,1.7,1
			c0,1.5-2.1,0.1-2.6,4.5v13.1c-0.3,5.7-4.2,7.8-6.3,7.8v-2c3-1,4.2-2.8,4.4-5.9V32.2z"/>
		<path class="st8" d="M90.4,35.5l-3.1,11.9c-0.5,2.1-0.1,2.7,1,3.2c0.5,0.2,1,0.5,1,1.1c0,1-1,0.9-1.7,0.9h-3.8c-0.7,0-1.8,0-1.8-1
			c0-0.8,0.6-0.8,1.3-1.2c0.7-0.4,1.6-1.2,2.2-3.6l3.9-15.2h0.1L90.4,35.5z M93.9,46h-4.8l0.5-2h4l-3.3-15.3l0.4-1.9h7.2l4.9,21.9
			c0.2,1,0.2,1.6,1.1,2c0.5,0.2,0.8,0.5,0.8,1.1c0,0.9-1.2,0.9-1.8,0.9h-8.2c-0.7,0-1.6-0.1-1.6-1c0-0.6,0.2-0.7,0.6-1
			c0.9-0.5,1-0.8,0.7-2.1L93.9,46z"/>
	</g>
	<g>
		<defs>
			
				<ellipse id="SVGID_1_" transform="matrix(0.9837 -0.1795 0.1795 0.9837 -8.7093 14.1688)" cx="73.9" cy="55.2" rx="39.9" ry="19"/>
		</defs>
		<clipPath id="SVGID_2_">
			<use xlink:href="#SVGID_1_"  style="overflow:visible;"/>
		</clipPath>
		<g class="st11">
			<path class="st6" d="M54.1,48.8c0,1.3,0,1.5,1.1,1.9c0.4,0.1,0.7,0.5,0.7,0.9c0,1-1.1,1.1-1.2,1.1h-9.3c-0.1,0-1.2-0.1-1.2-1.1
				c0-0.5,0.3-0.8,0.7-0.9c1.1-0.4,1.1-0.6,1.1-1.9V30.7c0-1.3,0-1.5-1.1-1.9c-0.4-0.1-0.7-0.5-0.7-0.9c0-1,1.1-1.1,1.2-1.1h9.3
				c0.1,0,1.2,0.1,1.2,1.1c0,0.5-0.3,0.8-0.7,0.9c-1.1,0.4-1.1,0.6-1.1,1.9V48.8z"/>
			<path class="st6" d="M70.9,53.2c-2.6,0-4.6,0-6.8-1.4c-2.9-1.7-3.3-3.1-3.3-4.8V30.7c0-1.3,0-1.5-1.1-1.9
				c-0.4-0.1-0.7-0.5-0.7-0.9c0-1,1.1-1.1,1.2-1.1h9.3c0.1,0,1.2,0.1,1.2,1.1c0,0.5-0.3,0.8-0.7,0.9c-1.1,0.4-1.1,0.6-1.1,1.9v16.7
				c0,0.3-0.3,3.1,2.2,3.9V53.2z M76.7,32.2c-0.5-4.3-2.6-3-2.6-4.5c0-1.1,1.3-1,1.7-1h3.7c0.4,0,1.7-0.1,1.7,1
				c0,1.5-2.1,0.1-2.6,4.5v13.1c-0.3,5.7-4.2,7.8-6.3,7.8v-2c3-1,4.2-2.8,4.4-5.9V32.2z"/>
			<path class="st6" d="M90.4,35.5l-3.1,11.9c-0.5,2.1-0.1,2.7,1,3.2c0.5,0.2,1,0.5,1,1.1c0,1-1,0.9-1.7,0.9h-3.8
				c-0.7,0-1.8,0-1.8-1c0-0.8,0.6-0.8,1.3-1.2c0.7-0.4,1.6-1.2,2.2-3.6l3.9-15.2h0.1L90.4,35.5z M93.9,46h-4.8l0.5-2h4l-3.3-15.3
				l0.4-1.9h7.2l4.9,21.9c0.2,1,0.2,1.6,1.1,2c0.5,0.2,0.8,0.5,0.8,1.1c0,0.9-1.2,0.9-1.8,0.9h-8.2c-0.7,0-1.6-0.1-1.6-1
				c0-0.6,0.2-0.7,0.6-1c0.9-0.5,1-0.8,0.7-2.1L93.9,46z"/>
		</g>
	</g>
	<g>
		<g>
			<polygon class="st12" points="52.5,12.2 58.9,13.1 54.2,17.7 55.3,24.1 49.5,21 43.7,24 44.9,17.6 40.2,13 46.7,12.1 49.6,6.3 
							"/>
			<polygon class="st12" points="33,22.1 39.1,23 34.7,27.2 35.7,33.2 30.3,30.3 24.9,33.1 26,27.1 21.6,22.8 27.6,22 30.3,16.6 			
				"/>
			<polygon class="st12" points="27.5,41.3 32.8,42.2 29,45.7 30,50.9 25.3,48.3 20.6,50.7 21.4,45.5 17.5,41.7 22.8,41.1 
				25.1,36.5 			"/>
			<polygon class="st12" points="36,56.5 40,57.1 37.1,59.9 37.7,63.9 34.1,62 30.5,63.9 31.2,59.9 28.4,57.1 32.4,56.5 34.2,52.8 
							"/>
			<polygon class="st12" points="51.9,61.8 54.8,62.2 52.7,64.3 53.1,67.2 50.5,65.9 47.9,67.3 48.5,64.4 46.5,62.3 49.4,61.9 
				50.7,59.2 			"/>
			<polygon class="st12" points="63.5,59.2 65.9,59.6 64.1,61.3 64.5,63.7 62.4,62.5 60.2,63.6 60.6,61.2 58.9,59.5 61.3,59.2 
				62.4,57 			"/>
			<polygon class="st12" points="72,56.1 73.6,56.4 72.5,57.5 72.7,59.1 71.3,58.3 69.9,59 70.1,57.4 69,56.3 70.6,56.1 71.2,54.7 
							"/>
		</g>
	</g>
	<g>
		<radialGradient id="SVGID_3_" cx="49.5709" cy="15.003" r="9.1497" gradientUnits="userSpaceOnUse">
			<stop  offset="0" style="stop-color:#FFFFFF"/>
			<stop  offset="5.997539e-03" style="stop-color:#FDFEFF"/>
			<stop  offset="0.1413" style="stop-color:#CBE9F7"/>
			<stop  offset="0.2797" style="stop-color:#A0D8F1"/>
			<stop  offset="0.4191" style="stop-color:#7EC9EC"/>
			<stop  offset="0.5597" style="stop-color:#63BEE8"/>
			<stop  offset="0.7022" style="stop-color:#4FB6E5"/>
			<stop  offset="0.8475" style="stop-color:#44B2E4"/>
			<stop  offset="1" style="stop-color:#40B0E3"/>
		</radialGradient>
		<polygon class="st13" points="52.5,12 58.9,12.9 54.2,17.5 55.3,23.9 49.5,20.8 43.7,23.9 44.9,17.4 40.2,12.8 46.7,11.9 
			49.6,6.1 		"/>
		<radialGradient id="SVGID_4_" cx="30.3346" cy="24.7187" r="8.5365" gradientUnits="userSpaceOnUse">
			<stop  offset="0" style="stop-color:#FFFFFF"/>
			<stop  offset="5.997539e-03" style="stop-color:#FDFEFF"/>
			<stop  offset="0.1413" style="stop-color:#CBE9F7"/>
			<stop  offset="0.2797" style="stop-color:#A0D8F1"/>
			<stop  offset="0.4191" style="stop-color:#7EC9EC"/>
			<stop  offset="0.5597" style="stop-color:#63BEE8"/>
			<stop  offset="0.7022" style="stop-color:#4FB6E5"/>
			<stop  offset="0.8475" style="stop-color:#44B2E4"/>
			<stop  offset="1" style="stop-color:#40B0E3"/>
		</radialGradient>
		<polygon class="st14" points="33,21.9 39.1,22.8 34.7,27 35.7,33 30.3,30.1 24.9,32.9 26,26.9 21.6,22.6 27.6,21.8 30.3,16.4 		
			"/>
		<radialGradient id="SVGID_5_" cx="25.1583" cy="43.5038" r="7.4345" gradientUnits="userSpaceOnUse">
			<stop  offset="0" style="stop-color:#FFFFFF"/>
			<stop  offset="5.997539e-03" style="stop-color:#FDFEFF"/>
			<stop  offset="0.1413" style="stop-color:#CBE9F7"/>
			<stop  offset="0.2797" style="stop-color:#A0D8F1"/>
			<stop  offset="0.4191" style="stop-color:#7EC9EC"/>
			<stop  offset="0.5597" style="stop-color:#63BEE8"/>
			<stop  offset="0.7022" style="stop-color:#4FB6E5"/>
			<stop  offset="0.8475" style="stop-color:#44B2E4"/>
			<stop  offset="1" style="stop-color:#40B0E3"/>
		</radialGradient>
		<polygon class="st15" points="27.5,41.1 32.8,42 29,45.5 30,50.7 25.3,48.2 20.6,50.5 21.4,45.3 17.5,41.5 22.8,40.9 25.1,36.3 		
			"/>
		<radialGradient id="SVGID_6_" cx="34.1796" cy="58.1861" r="5.6981" gradientUnits="userSpaceOnUse">
			<stop  offset="0" style="stop-color:#FFFFFF"/>
			<stop  offset="5.997539e-03" style="stop-color:#FDFEFF"/>
			<stop  offset="0.1413" style="stop-color:#CBE9F7"/>
			<stop  offset="0.2797" style="stop-color:#A0D8F1"/>
			<stop  offset="0.4191" style="stop-color:#7EC9EC"/>
			<stop  offset="0.5597" style="stop-color:#63BEE8"/>
			<stop  offset="0.7022" style="stop-color:#4FB6E5"/>
			<stop  offset="0.8475" style="stop-color:#44B2E4"/>
			<stop  offset="1" style="stop-color:#40B0E3"/>
		</radialGradient>
		<polygon class="st16" points="36,56.3 40,56.9 37.1,59.7 37.7,63.8 34.1,61.8 30.5,63.7 31.2,59.7 28.4,56.9 32.4,56.3 34.2,52.6 
					"/>
		<radialGradient id="SVGID_7_" cx="50.6348" cy="63.0492" r="4.1107" gradientUnits="userSpaceOnUse">
			<stop  offset="0" style="stop-color:#FFFFFF"/>
			<stop  offset="5.997539e-03" style="stop-color:#FDFEFF"/>
			<stop  offset="0.1413" style="stop-color:#CBE9F7"/>
			<stop  offset="0.2797" style="stop-color:#A0D8F1"/>
			<stop  offset="0.4191" style="stop-color:#7EC9EC"/>
			<stop  offset="0.5597" style="stop-color:#63BEE8"/>
			<stop  offset="0.7022" style="stop-color:#4FB6E5"/>
			<stop  offset="0.8475" style="stop-color:#44B2E4"/>
			<stop  offset="1" style="stop-color:#40B0E3"/>
		</radialGradient>
		<polygon class="st17" points="51.9,61.6 54.8,62 52.7,64.1 53.1,67 50.5,65.7 47.9,67.1 48.5,64.2 46.5,62.2 49.4,61.7 50.7,59 		
			"/>
		<radialGradient id="SVGID_8_" cx="62.3928" cy="60.1459" r="3.429" gradientUnits="userSpaceOnUse">
			<stop  offset="0" style="stop-color:#FFFFFF"/>
			<stop  offset="5.997539e-03" style="stop-color:#FDFEFF"/>
			<stop  offset="0.1413" style="stop-color:#CBE9F7"/>
			<stop  offset="0.2797" style="stop-color:#A0D8F1"/>
			<stop  offset="0.4191" style="stop-color:#7EC9EC"/>
			<stop  offset="0.5597" style="stop-color:#63BEE8"/>
			<stop  offset="0.7022" style="stop-color:#4FB6E5"/>
			<stop  offset="0.8475" style="stop-color:#44B2E4"/>
			<stop  offset="1" style="stop-color:#40B0E3"/>
		</radialGradient>
		<polygon class="st18" points="63.5,59 65.9,59.4 64.1,61.1 64.5,63.5 62.4,62.3 60.2,63.4 60.6,61 58.9,59.3 61.3,59 62.4,56.8 		
			"/>
		<radialGradient id="SVGID_9_" cx="71.2732" cy="56.7122" r="2.2603" gradientUnits="userSpaceOnUse">
			<stop  offset="0" style="stop-color:#FFFFFF"/>
			<stop  offset="5.997539e-03" style="stop-color:#FDFEFF"/>
			<stop  offset="0.1413" style="stop-color:#CBE9F7"/>
			<stop  offset="0.2797" style="stop-color:#A0D8F1"/>
			<stop  offset="0.4191" style="stop-color:#7EC9EC"/>
			<stop  offset="0.5597" style="stop-color:#63BEE8"/>
			<stop  offset="0.7022" style="stop-color:#4FB6E5"/>
			<stop  offset="0.8475" style="stop-color:#44B2E4"/>
			<stop  offset="1" style="stop-color:#40B0E3"/>
		</radialGradient>
		<polygon class="st19" points="72,56 73.6,56.2 72.5,57.3 72.7,58.9 71.3,58.1 69.9,58.8 70.1,57.3 69,56.1 70.6,55.9 71.2,54.5 		
			"/>
	</g>
	<g>
		<g>
			<path class="st20" d="M17,81.3v-5.8h0.9v5.8H17z"/>
			<path class="st20" d="M21.8,81.3h-0.9v-2.1c0-0.4,0-0.7,0-0.9c0-0.1-0.1-0.3-0.2-0.3c-0.1-0.1-0.2-0.1-0.3-0.1
				c-0.1,0-0.3,0-0.4,0.1c-0.1,0.1-0.2,0.2-0.2,0.4c0,0.2-0.1,0.5-0.1,1v1.9h-0.9v-4.2h0.8v0.6c0.1-0.2,0.3-0.4,0.5-0.5
				c0.2-0.1,0.4-0.2,0.6-0.2c0.3,0,0.5,0.1,0.6,0.2c0.2,0.1,0.3,0.3,0.4,0.5c0.1,0.2,0.1,0.5,0.1,0.9V81.3z"/>
			<path class="st20" d="M22.3,80.1l0.9-0.2c0.1,0.4,0.3,0.7,0.7,0.7c0.2,0,0.4,0,0.5-0.1c0.1-0.1,0.2-0.2,0.2-0.3
				c0-0.1,0-0.2-0.1-0.2c0-0.1-0.1-0.1-0.3-0.1c-0.7-0.2-1.2-0.4-1.3-0.6c-0.2-0.2-0.4-0.5-0.4-0.9s0.1-0.7,0.3-0.9s0.6-0.4,1-0.4
				c0.4,0,0.7,0.1,1,0.3c0.2,0.2,0.4,0.5,0.5,0.8l-0.8,0.2c-0.1-0.3-0.3-0.5-0.6-0.5c-0.2,0-0.4,0-0.5,0.1c-0.1,0.1-0.1,0.1-0.1,0.3
				c0,0.1,0,0.2,0.1,0.2c0.1,0.1,0.3,0.2,0.8,0.3c0.5,0.1,0.8,0.3,1,0.5c0.2,0.2,0.3,0.5,0.3,0.8c0,0.4-0.1,0.7-0.4,1
				c-0.3,0.3-0.6,0.4-1.1,0.4c-0.4,0-0.8-0.1-1-0.3C22.6,80.8,22.4,80.5,22.3,80.1z"/>
			<path class="st20" d="M27.6,77.1V78H27v1.7c0,0.4,0,0.6,0,0.6c0,0.1,0.1,0.2,0.2,0.2c0.1,0,0.2,0,0.3-0.1l0.1,0.9
				c-0.2,0.1-0.4,0.2-0.7,0.2c-0.2,0-0.4-0.1-0.5-0.2c-0.1-0.1-0.2-0.3-0.3-0.5c0-0.2-0.1-0.5-0.1-0.9V78h-0.4v-0.9h0.4v-0.8
				l0.9-0.6v1.5H27.6z"/>
			<path class="st20" d="M28.2,76.5v-1H29v1H28.2z M28.2,81.3v-4.2H29v4.2H28.2z"/>
			<path class="st20" d="M31.4,77.1V78h-0.6v1.7c0,0.4,0,0.6,0,0.6c0,0.1,0.1,0.2,0.2,0.2c0.1,0,0.2,0,0.3-0.1l0.1,0.9
				c-0.2,0.1-0.4,0.2-0.7,0.2c-0.2,0-0.4-0.1-0.5-0.2c-0.1-0.1-0.2-0.3-0.3-0.5c0-0.2-0.1-0.5-0.1-0.9V78h-0.4v-0.9H30v-0.8l0.9-0.6
				v1.5H31.4z"/>
			<path class="st20" d="M34.1,81.3v-0.6c-0.1,0.2-0.3,0.4-0.5,0.5c-0.2,0.1-0.4,0.2-0.6,0.2c-0.2,0-0.4-0.1-0.6-0.2
				c-0.2-0.1-0.3-0.3-0.4-0.5c-0.1-0.2-0.1-0.5-0.1-1v-2.7h0.9V79c0,0.5,0,0.9,0,1c0,0.1,0.1,0.3,0.2,0.3c0.1,0.1,0.2,0.1,0.3,0.1
				c0.1,0,0.3-0.1,0.4-0.2c0.1-0.1,0.2-0.2,0.2-0.4c0-0.2,0.1-0.5,0.1-1.1v-1.8h0.9v4.2H34.1z"/>
			<path class="st20" d="M37.3,77.1V78h-0.6v1.7c0,0.4,0,0.6,0,0.6c0,0.1,0.1,0.2,0.2,0.2c0.1,0,0.2,0,0.3-0.1l0.1,0.9
				c-0.2,0.1-0.4,0.2-0.7,0.2c-0.2,0-0.4-0.1-0.5-0.2c-0.1-0.1-0.2-0.3-0.3-0.5c0-0.2-0.1-0.5-0.1-0.9V78h-0.4v-0.9h0.4v-0.8
				l0.9-0.6v1.5H37.3z"/>
			<path class="st20" d="M39.6,75.5h0.9v3.1c0,0.5,0,0.8,0,1c0,0.3,0.1,0.5,0.3,0.6c0.2,0.1,0.3,0.2,0.6,0.2c0.2,0,0.4,0,0.5-0.1
				c0.1-0.1,0.2-0.2,0.3-0.4c0-0.2,0.1-0.5,0.1-1.1v-3.2h0.9v3c0,0.8,0,1.3-0.1,1.7c-0.1,0.3-0.3,0.6-0.5,0.8s-0.6,0.3-1.1,0.3
				c-0.5,0-0.8-0.1-1.1-0.3c-0.3-0.2-0.5-0.4-0.6-0.7c-0.1-0.3-0.2-0.9-0.2-1.8V75.5z"/>
			<path class="st20" d="M47.1,81.3h-0.9v-2.1c0-0.4,0-0.7,0-0.9c0-0.1-0.1-0.3-0.2-0.3c-0.1-0.1-0.2-0.1-0.3-0.1
				c-0.1,0-0.3,0-0.4,0.1c-0.1,0.1-0.2,0.2-0.2,0.4s-0.1,0.5-0.1,1v1.9h-0.9v-4.2h0.8v0.6c0.1-0.2,0.3-0.4,0.5-0.5
				C45.6,77,45.8,77,46,77c0.3,0,0.5,0.1,0.6,0.2c0.2,0.1,0.3,0.3,0.4,0.5c0.1,0.2,0.1,0.5,0.1,0.9V81.3z"/>
			<path class="st20" d="M48,76.5v-1h0.9v1H48z M48,81.3v-4.2h0.9v4.2H48z"/>
			<path class="st20" d="M50.6,81.3l-1.3-4.2h0.9l0.6,2.1l0.2,0.7l0.2-0.7l0.6-2.1h0.9l-1.3,4.2H50.6z"/>
			<path class="st20" d="M55.1,79.9l0.9,0.2c-0.1,0.4-0.3,0.7-0.5,0.9c-0.2,0.2-0.5,0.3-0.9,0.3c-0.5,0-0.8-0.2-1.1-0.5
				c-0.3-0.4-0.5-0.9-0.5-1.7c0-0.7,0.2-1.3,0.5-1.7c0.3-0.4,0.6-0.5,1-0.5c0.5,0,0.8,0.2,1.1,0.5c0.3,0.4,0.5,1,0.5,1.8l0,0.1h-2.1
				c0,0.3,0.1,0.6,0.2,0.8c0.1,0.2,0.3,0.3,0.5,0.3C54.8,80.5,55,80.3,55.1,79.9z M55.1,78.8c0-0.3-0.1-0.6-0.2-0.7
				c-0.1-0.2-0.3-0.2-0.4-0.2c-0.2,0-0.3,0.1-0.5,0.3c-0.1,0.2-0.2,0.4-0.2,0.7H55.1z"/>
			<path class="st20" d="M57.5,81.3h-0.9v-4.2h0.8v0.6c0.1-0.3,0.3-0.5,0.4-0.6C57.9,77,58,77,58.1,77c0.2,0,0.4,0.1,0.6,0.2l-0.3,1
				C58.3,78,58.2,78,58,78c-0.1,0-0.2,0-0.3,0.1c-0.1,0.1-0.2,0.3-0.2,0.5c0,0.2-0.1,0.7-0.1,1.4V81.3z"/>
			<path class="st20" d="M58.8,80.1l0.9-0.2c0.1,0.4,0.3,0.7,0.7,0.7c0.2,0,0.4,0,0.5-0.1c0.1-0.1,0.2-0.2,0.2-0.3
				c0-0.1,0-0.2-0.1-0.2c0-0.1-0.1-0.1-0.3-0.1c-0.7-0.2-1.2-0.4-1.3-0.6c-0.2-0.2-0.4-0.5-0.4-0.9s0.1-0.7,0.3-0.9s0.6-0.4,1-0.4
				c0.4,0,0.7,0.1,1,0.3c0.2,0.2,0.4,0.5,0.5,0.8l-0.8,0.2c-0.1-0.3-0.3-0.5-0.6-0.5c-0.2,0-0.4,0-0.5,0.1c-0.1,0.1-0.1,0.1-0.1,0.3
				c0,0.1,0,0.2,0.1,0.2c0.1,0.1,0.3,0.2,0.8,0.3c0.5,0.1,0.8,0.3,1,0.5c0.2,0.2,0.3,0.5,0.3,0.8c0,0.4-0.1,0.7-0.4,1
				c-0.3,0.3-0.6,0.4-1.1,0.4c-0.4,0-0.8-0.1-1-0.3C59,80.8,58.9,80.5,58.8,80.1z"/>
			<path class="st20" d="M62.6,76.5v-1h0.9v1H62.6z M62.6,81.3v-4.2h0.9v4.2H62.6z"/>
			<path class="st20" d="M65.8,77.1V78h-0.6v1.7c0,0.4,0,0.6,0,0.6c0,0.1,0.1,0.2,0.2,0.2c0.1,0,0.2,0,0.3-0.1l0.1,0.9
				c-0.2,0.1-0.4,0.2-0.7,0.2c-0.2,0-0.4-0.1-0.5-0.2c-0.1-0.1-0.2-0.3-0.3-0.5c0-0.2-0.1-0.5-0.1-0.9V78h-0.4v-0.9h0.4v-0.8
				l0.9-0.6v1.5H65.8z"/>
			<path class="st20" d="M67,78.3l-0.8-0.2c0.1-0.4,0.2-0.7,0.5-0.9c0.2-0.2,0.5-0.3,0.9-0.3c0.4,0,0.6,0.1,0.8,0.2
				c0.2,0.1,0.3,0.3,0.4,0.4c0.1,0.2,0.1,0.5,0.1,1l0,1.3c0,0.4,0,0.6,0,0.8c0,0.2,0.1,0.4,0.2,0.6h-0.8l-0.1-0.5
				c-0.1,0.2-0.3,0.3-0.5,0.4c-0.2,0.1-0.3,0.1-0.5,0.1c-0.3,0-0.6-0.1-0.8-0.3c-0.2-0.2-0.3-0.5-0.3-0.9c0-0.2,0-0.4,0.1-0.6
				c0.1-0.2,0.2-0.3,0.3-0.4c0.1-0.1,0.4-0.2,0.7-0.3c0.4-0.1,0.7-0.2,0.8-0.3c0-0.2,0-0.4,0-0.5c0-0.1-0.1-0.1-0.2-0.2
				s-0.2-0.1-0.4-0.1c-0.2,0-0.3,0-0.4,0.1C67.1,78,67.1,78.1,67,78.3z M68.2,79.2c-0.1,0-0.3,0.1-0.5,0.2c-0.3,0.1-0.4,0.2-0.5,0.2
				C67,79.8,67,79.9,67,80c0,0.2,0,0.3,0.1,0.4s0.2,0.2,0.3,0.2c0.1,0,0.2,0,0.4-0.1c0.1-0.1,0.2-0.2,0.2-0.3c0-0.1,0.1-0.3,0.1-0.7
				V79.2z"/>
			<path class="st20" d="M69.8,76.5v-1h0.9v1H69.8z M69.8,81.3v-4.2h0.9v4.2H69.8z"/>
			<path class="st20" d="M72.4,81.3h-0.9v-4.2h0.8v0.6c0.1-0.3,0.3-0.5,0.4-0.6c0.1-0.1,0.2-0.1,0.4-0.1c0.2,0,0.4,0.1,0.6,0.2
				l-0.3,1C73.2,78,73.1,78,73,78c-0.1,0-0.2,0-0.3,0.1c-0.1,0.1-0.2,0.3-0.2,0.5c0,0.2-0.1,0.7-0.1,1.4V81.3z"/>
			<path class="st20" d="M75.9,79.9l0.9,0.2c-0.1,0.4-0.3,0.7-0.5,0.9c-0.2,0.2-0.5,0.3-0.9,0.3c-0.5,0-0.8-0.2-1.1-0.5
				c-0.3-0.4-0.5-0.9-0.5-1.7c0-0.7,0.2-1.3,0.5-1.7c0.3-0.4,0.6-0.5,1-0.5c0.5,0,0.8,0.2,1.1,0.5c0.3,0.4,0.5,1,0.5,1.8l0,0.1h-2.1
				c0,0.3,0.1,0.6,0.2,0.8c0.1,0.2,0.3,0.3,0.5,0.3C75.6,80.5,75.8,80.3,75.9,79.9z M75.9,78.8c0-0.3-0.1-0.6-0.2-0.7
				c-0.1-0.2-0.3-0.2-0.4-0.2c-0.2,0-0.3,0.1-0.5,0.3c-0.1,0.2-0.2,0.4-0.2,0.7H75.9z"/>
			<path class="st20" d="M82.2,81.3h-0.8v-0.6c-0.1,0.2-0.3,0.4-0.5,0.5c-0.2,0.1-0.4,0.2-0.6,0.2c-0.4,0-0.7-0.2-0.9-0.6
				c-0.3-0.4-0.4-0.9-0.4-1.6c0-0.7,0.1-1.3,0.4-1.6c0.3-0.4,0.6-0.5,1-0.5c0.2,0,0.3,0,0.5,0.1c0.2,0.1,0.3,0.2,0.4,0.4v-2.1h0.9
				V81.3z M79.9,79.1c0,0.4,0,0.7,0.1,0.8c0.1,0.2,0.1,0.3,0.3,0.4c0.1,0.1,0.2,0.1,0.4,0.1c0.2,0,0.4-0.1,0.5-0.3
				c0.1-0.2,0.2-0.5,0.2-1c0-0.5-0.1-0.8-0.2-1c-0.1-0.2-0.3-0.3-0.5-0.3c-0.2,0-0.4,0.1-0.5,0.3C80,78.3,79.9,78.7,79.9,79.1z"/>
			<path class="st20" d="M83,77.5l-0.2-1.1v-1h0.9v1l-0.1,1.1H83z"/>
			<path class="st20" d="M88.6,81.3h-1L87.2,80h-1.8L85,81.3h-1l1.7-5.8h1L88.6,81.3z M86.9,79l-0.6-2.1L85.7,79H86.9z"/>
			<path class="st20" d="M89,81.3v-5.8h0.9v2.1c0.1-0.2,0.3-0.3,0.4-0.4c0.2-0.1,0.3-0.1,0.5-0.1c0.4,0,0.7,0.2,1,0.5
				c0.3,0.4,0.4,0.9,0.4,1.6c0,0.7-0.1,1.3-0.4,1.6c-0.3,0.4-0.6,0.6-1,0.6c-0.2,0-0.4-0.1-0.5-0.2c-0.2-0.1-0.3-0.3-0.5-0.5v0.6H89
				z M89.9,79.1c0,0.4,0,0.6,0.1,0.8c0.1,0.2,0.2,0.3,0.3,0.4c0.1,0.1,0.2,0.1,0.4,0.1c0.2,0,0.3-0.1,0.5-0.3c0.1-0.2,0.2-0.5,0.2-1
				c0-0.5-0.1-0.8-0.2-1c-0.1-0.2-0.3-0.3-0.5-0.3c-0.2,0-0.4,0.1-0.5,0.3C89.9,78.3,89.9,78.7,89.9,79.1z"/>
			<path class="st20" d="M92.9,76.5v-1h0.9v1H92.9z M92.9,81.3v-4.2h0.9v4.2H92.9z"/>
			<path class="st20" d="M97.6,81.3h-0.8v-0.6c-0.1,0.2-0.3,0.4-0.5,0.5c-0.2,0.1-0.4,0.2-0.6,0.2c-0.4,0-0.7-0.2-0.9-0.6
				c-0.3-0.4-0.4-0.9-0.4-1.6c0-0.7,0.1-1.3,0.4-1.6s0.6-0.5,1-0.5c0.2,0,0.3,0,0.5,0.1c0.2,0.1,0.3,0.2,0.4,0.4v-2.1h0.9V81.3z
				 M95.3,79.1c0,0.4,0,0.7,0.1,0.8c0.1,0.2,0.1,0.3,0.3,0.4c0.1,0.1,0.2,0.1,0.4,0.1c0.2,0,0.4-0.1,0.5-0.3c0.1-0.2,0.2-0.5,0.2-1
				c0-0.5-0.1-0.8-0.2-1c-0.1-0.2-0.3-0.3-0.5-0.3c-0.2,0-0.4,0.1-0.5,0.3C95.4,78.3,95.3,78.7,95.3,79.1z"/>
			<path class="st20" d="M99.3,77.1v4.1c0,0.6,0,1-0.1,1.2c-0.1,0.2-0.2,0.4-0.3,0.5c-0.2,0.1-0.3,0.2-0.6,0.2c-0.2,0-0.4,0-0.6-0.1
				l0.1-0.9c0.1,0,0.2,0,0.2,0c0.1,0,0.3-0.1,0.3-0.2c0-0.1,0-0.3,0-0.7v-4H99.3z M98.4,76.5v-1h0.9v1H98.4z"/>
			<path class="st20" d="M100.8,78.3l-0.8-0.2c0.1-0.4,0.2-0.7,0.5-0.9c0.2-0.2,0.5-0.3,0.9-0.3c0.4,0,0.6,0.1,0.8,0.2
				c0.2,0.1,0.3,0.3,0.4,0.4c0.1,0.2,0.1,0.5,0.1,1l0,1.3c0,0.4,0,0.6,0,0.8c0,0.2,0.1,0.4,0.2,0.6h-0.8l-0.1-0.5
				c-0.1,0.2-0.3,0.3-0.5,0.4c-0.2,0.1-0.3,0.1-0.5,0.1c-0.3,0-0.6-0.1-0.8-0.3c-0.2-0.2-0.3-0.5-0.3-0.9c0-0.2,0-0.4,0.1-0.6
				c0.1-0.2,0.2-0.3,0.3-0.4c0.1-0.1,0.4-0.2,0.7-0.3c0.4-0.1,0.7-0.2,0.8-0.3c0-0.2,0-0.4,0-0.5c0-0.1-0.1-0.1-0.2-0.2
				s-0.2-0.1-0.4-0.1c-0.2,0-0.3,0-0.4,0.1C100.9,78,100.8,78.1,100.8,78.3z M101.9,79.2c-0.1,0-0.3,0.1-0.5,0.2
				c-0.3,0.1-0.4,0.2-0.5,0.2c-0.1,0.1-0.1,0.2-0.1,0.3c0,0.2,0,0.3,0.1,0.4s0.2,0.2,0.3,0.2c0.1,0,0.2,0,0.4-0.1
				c0.1-0.1,0.2-0.2,0.2-0.3c0-0.1,0.1-0.3,0.1-0.7V79.2z"/>
			<path class="st20" d="M106.6,81.3h-0.9v-2.1c0-0.4,0-0.7,0-0.9c0-0.1-0.1-0.3-0.2-0.3c-0.1-0.1-0.2-0.1-0.3-0.1
				c-0.1,0-0.3,0-0.4,0.1c-0.1,0.1-0.2,0.2-0.2,0.4s-0.1,0.5-0.1,1v1.9h-0.9v-4.2h0.8v0.6c0.1-0.2,0.3-0.4,0.5-0.5
				c0.2-0.1,0.4-0.2,0.6-0.2c0.3,0,0.5,0.1,0.6,0.2c0.2,0.1,0.3,0.3,0.4,0.5c0.1,0.2,0.1,0.5,0.1,0.9V81.3z"/>
		</g>
		<g>
			<path class="st8" d="M16.9,81.5v-5.8h0.9v5.8H16.9z"/>
			<path class="st8" d="M21.6,81.5h-0.9v-2.1c0-0.4,0-0.7,0-0.9c0-0.1-0.1-0.3-0.2-0.3c-0.1-0.1-0.2-0.1-0.3-0.1
				c-0.1,0-0.3,0-0.4,0.1c-0.1,0.1-0.2,0.2-0.2,0.4s-0.1,0.5-0.1,1v1.9h-0.9v-4.2h0.8v0.6c0.1-0.2,0.3-0.4,0.5-0.5
				c0.2-0.1,0.4-0.2,0.6-0.2c0.3,0,0.5,0.1,0.6,0.2c0.2,0.1,0.3,0.3,0.4,0.5c0.1,0.2,0.1,0.5,0.1,0.9V81.5z"/>
			<path class="st8" d="M22.1,80.3l0.9-0.2c0.1,0.4,0.3,0.7,0.7,0.7c0.2,0,0.4,0,0.5-0.1c0.1-0.1,0.2-0.2,0.2-0.3
				c0-0.1,0-0.2-0.1-0.2c0-0.1-0.1-0.1-0.3-0.1c-0.7-0.2-1.2-0.4-1.3-0.6c-0.2-0.2-0.4-0.5-0.4-0.9s0.1-0.7,0.3-0.9s0.6-0.4,1-0.4
				c0.4,0,0.7,0.1,1,0.3c0.2,0.2,0.4,0.5,0.5,0.8l-0.8,0.2C24.2,78.1,24,78,23.6,78c-0.2,0-0.4,0-0.5,0.1c-0.1,0.1-0.1,0.1-0.1,0.3
				c0,0.1,0,0.2,0.1,0.2c0.1,0.1,0.3,0.2,0.8,0.3c0.5,0.1,0.8,0.3,1,0.5c0.2,0.2,0.3,0.5,0.3,0.8c0,0.4-0.1,0.7-0.4,1
				c-0.3,0.3-0.6,0.4-1.1,0.4c-0.4,0-0.8-0.1-1-0.3C22.4,81,22.2,80.7,22.1,80.3z"/>
			<path class="st8" d="M27.4,77.3v0.9h-0.6v1.7c0,0.4,0,0.6,0,0.6c0,0.1,0.1,0.2,0.2,0.2c0.1,0,0.2,0,0.3-0.1l0.1,0.9
				c-0.2,0.1-0.4,0.2-0.7,0.2c-0.2,0-0.4-0.1-0.5-0.2c-0.1-0.1-0.2-0.3-0.3-0.5c0-0.2-0.1-0.5-0.1-0.9v-1.8h-0.4v-0.9h0.4v-0.8
				l0.9-0.6v1.5H27.4z"/>
			<path class="st8" d="M28,76.7v-1h0.9v1H28z M28,81.5v-4.2h0.9v4.2H28z"/>
			<path class="st8" d="M31.2,77.3v0.9h-0.6v1.7c0,0.4,0,0.6,0,0.6c0,0.1,0.1,0.2,0.2,0.2c0.1,0,0.2,0,0.3-0.1l0.1,0.9
				c-0.2,0.1-0.4,0.2-0.7,0.2c-0.2,0-0.4-0.1-0.5-0.2c-0.1-0.1-0.2-0.3-0.3-0.5c0-0.2-0.1-0.5-0.1-0.9v-1.8h-0.4v-0.9h0.4v-0.8
				l0.9-0.6v1.5H31.2z"/>
			<path class="st8" d="M33.9,81.5v-0.6c-0.1,0.2-0.3,0.4-0.5,0.5c-0.2,0.1-0.4,0.2-0.6,0.2c-0.2,0-0.4-0.1-0.6-0.2
				c-0.2-0.1-0.3-0.3-0.4-0.5c-0.1-0.2-0.1-0.5-0.1-1v-2.7h0.9v1.9c0,0.5,0,0.9,0,1c0,0.1,0.1,0.3,0.2,0.3c0.1,0.1,0.2,0.1,0.3,0.1
				c0.1,0,0.3-0.1,0.4-0.2c0.1-0.1,0.2-0.2,0.2-0.4c0-0.2,0.1-0.5,0.1-1.1v-1.8h0.9v4.2H33.9z"/>
			<path class="st8" d="M37.1,77.3v0.9h-0.6v1.7c0,0.4,0,0.6,0,0.6c0,0.1,0.1,0.2,0.2,0.2c0.1,0,0.2,0,0.3-0.1l0.1,0.9
				c-0.2,0.1-0.4,0.2-0.7,0.2c-0.2,0-0.4-0.1-0.5-0.2c-0.1-0.1-0.2-0.3-0.3-0.5c0-0.2-0.1-0.5-0.1-0.9v-1.8h-0.4v-0.9h0.4v-0.8
				l0.9-0.6v1.5H37.1z"/>
			<path class="st8" d="M39.4,75.7h0.9v3.1c0,0.5,0,0.8,0,1c0,0.3,0.1,0.5,0.3,0.6c0.2,0.1,0.3,0.2,0.6,0.2c0.2,0,0.4,0,0.5-0.1
				c0.1-0.1,0.2-0.2,0.3-0.4c0-0.2,0.1-0.5,0.1-1.1v-3.2H43v3c0,0.8,0,1.3-0.1,1.7c-0.1,0.3-0.3,0.6-0.5,0.8
				c-0.3,0.2-0.6,0.3-1.1,0.3c-0.5,0-0.8-0.1-1.1-0.3c-0.3-0.2-0.5-0.4-0.6-0.7c-0.1-0.3-0.2-0.9-0.2-1.8V75.7z"/>
			<path class="st8" d="M46.9,81.5H46v-2.1c0-0.4,0-0.7,0-0.9c0-0.1-0.1-0.3-0.2-0.3c-0.1-0.1-0.2-0.1-0.3-0.1c-0.1,0-0.3,0-0.4,0.1
				c-0.1,0.1-0.2,0.2-0.2,0.4s-0.1,0.5-0.1,1v1.9h-0.9v-4.2h0.8v0.6c0.1-0.2,0.3-0.4,0.5-0.5c0.2-0.1,0.4-0.2,0.6-0.2
				c0.3,0,0.5,0.1,0.6,0.2c0.2,0.1,0.3,0.3,0.4,0.5c0.1,0.2,0.1,0.5,0.1,0.9V81.5z"/>
			<path class="st8" d="M47.8,76.7v-1h0.9v1H47.8z M47.8,81.5v-4.2h0.9v4.2H47.8z"/>
			<path class="st8" d="M50.4,81.5l-1.3-4.2H50l0.6,2.1l0.2,0.7l0.2-0.7l0.6-2.1h0.9l-1.3,4.2H50.4z"/>
			<path class="st8" d="M54.9,80.1l0.9,0.2c-0.1,0.4-0.3,0.7-0.5,0.9c-0.2,0.2-0.5,0.3-0.9,0.3c-0.5,0-0.8-0.2-1.1-0.5
				c-0.3-0.4-0.5-0.9-0.5-1.7c0-0.7,0.2-1.3,0.5-1.7c0.3-0.4,0.6-0.5,1-0.5c0.5,0,0.8,0.2,1.1,0.5c0.3,0.4,0.5,1,0.5,1.8l0,0.1h-2.1
				c0,0.3,0.1,0.6,0.2,0.8c0.1,0.2,0.3,0.3,0.5,0.3C54.6,80.7,54.8,80.5,54.9,80.1z M54.9,79c0-0.3-0.1-0.6-0.2-0.7
				c-0.1-0.2-0.3-0.2-0.4-0.2c-0.2,0-0.3,0.1-0.5,0.3c-0.1,0.2-0.2,0.4-0.2,0.7H54.9z"/>
			<path class="st8" d="M57.3,81.5h-0.9v-4.2h0.8v0.6c0.1-0.3,0.3-0.5,0.4-0.6c0.1-0.1,0.2-0.1,0.4-0.1c0.2,0,0.4,0.1,0.6,0.2
				l-0.3,1c-0.1-0.1-0.3-0.2-0.4-0.2c-0.1,0-0.2,0-0.3,0.1c-0.1,0.1-0.2,0.3-0.2,0.5c0,0.2-0.1,0.7-0.1,1.4V81.5z"/>
			<path class="st8" d="M58.6,80.3l0.9-0.2c0.1,0.4,0.3,0.7,0.7,0.7c0.2,0,0.4,0,0.5-0.1c0.1-0.1,0.2-0.2,0.2-0.3
				c0-0.1,0-0.2-0.1-0.2c0-0.1-0.1-0.1-0.3-0.1c-0.7-0.2-1.2-0.4-1.3-0.6c-0.2-0.2-0.4-0.5-0.4-0.9s0.1-0.7,0.3-0.9
				c0.2-0.2,0.6-0.4,1-0.4c0.4,0,0.7,0.1,1,0.3c0.2,0.2,0.4,0.5,0.5,0.8l-0.8,0.2c-0.1-0.3-0.3-0.5-0.6-0.5c-0.2,0-0.4,0-0.5,0.1
				c-0.1,0.1-0.1,0.1-0.1,0.3c0,0.1,0,0.2,0.1,0.2c0.1,0.1,0.3,0.2,0.8,0.3c0.5,0.1,0.8,0.3,1,0.5c0.2,0.2,0.3,0.5,0.3,0.8
				c0,0.4-0.1,0.7-0.4,1c-0.3,0.3-0.6,0.4-1.1,0.4c-0.4,0-0.8-0.1-1-0.3C58.8,81,58.7,80.7,58.6,80.3z"/>
			<path class="st8" d="M62.4,76.7v-1h0.9v1H62.4z M62.4,81.5v-4.2h0.9v4.2H62.4z"/>
			<path class="st8" d="M65.6,77.3v0.9H65v1.7c0,0.4,0,0.6,0,0.6c0,0.1,0.1,0.2,0.2,0.2c0.1,0,0.2,0,0.3-0.1l0.1,0.9
				c-0.2,0.1-0.4,0.2-0.7,0.2c-0.2,0-0.4-0.1-0.5-0.2c-0.1-0.1-0.2-0.3-0.3-0.5c0-0.2-0.1-0.5-0.1-0.9v-1.8h-0.4v-0.9h0.4v-0.8
				l0.9-0.6v1.5H65.6z"/>
			<path class="st8" d="M66.8,78.5L66,78.4c0.1-0.4,0.2-0.7,0.5-0.9c0.2-0.2,0.5-0.3,0.9-0.3c0.4,0,0.6,0.1,0.8,0.2
				c0.2,0.1,0.3,0.3,0.4,0.4c0.1,0.2,0.1,0.5,0.1,1l0,1.3c0,0.4,0,0.6,0,0.8s0.1,0.4,0.2,0.6h-0.8L68,81c-0.1,0.2-0.3,0.3-0.5,0.4
				c-0.2,0.1-0.3,0.1-0.5,0.1c-0.3,0-0.6-0.1-0.8-0.3c-0.2-0.2-0.3-0.5-0.3-0.9c0-0.2,0-0.4,0.1-0.6c0.1-0.2,0.2-0.3,0.3-0.4
				c0.1-0.1,0.4-0.2,0.7-0.3c0.4-0.1,0.7-0.2,0.8-0.3c0-0.2,0-0.4,0-0.5c0-0.1-0.1-0.1-0.2-0.2c-0.1,0-0.2-0.1-0.4-0.1
				c-0.2,0-0.3,0-0.4,0.1C66.9,78.2,66.9,78.3,66.8,78.5z M68,79.4c-0.1,0-0.3,0.1-0.5,0.2c-0.3,0.1-0.4,0.2-0.5,0.2
				c-0.1,0.1-0.1,0.2-0.1,0.3c0,0.2,0,0.3,0.1,0.4c0.1,0.1,0.2,0.2,0.3,0.2c0.1,0,0.2,0,0.4-0.1c0.1-0.1,0.2-0.2,0.2-0.3
				c0-0.1,0.1-0.3,0.1-0.7V79.4z"/>
			<path class="st8" d="M69.7,76.7v-1h0.9v1H69.7z M69.7,81.5v-4.2h0.9v4.2H69.7z"/>
			<path class="st8" d="M72.2,81.5h-0.9v-4.2h0.8v0.6c0.1-0.3,0.3-0.5,0.4-0.6c0.1-0.1,0.2-0.1,0.4-0.1c0.2,0,0.4,0.1,0.6,0.2
				l-0.3,1c-0.1-0.1-0.3-0.2-0.4-0.2c-0.1,0-0.2,0-0.3,0.1c-0.1,0.1-0.2,0.3-0.2,0.5c0,0.2-0.1,0.7-0.1,1.4V81.5z"/>
			<path class="st8" d="M75.7,80.1l0.9,0.2c-0.1,0.4-0.3,0.7-0.5,0.9c-0.2,0.2-0.5,0.3-0.9,0.3c-0.5,0-0.8-0.2-1.1-0.5
				c-0.3-0.4-0.5-0.9-0.5-1.7c0-0.7,0.2-1.3,0.5-1.7c0.3-0.4,0.6-0.5,1-0.5c0.5,0,0.8,0.2,1.1,0.5c0.3,0.4,0.5,1,0.5,1.8l0,0.1h-2.1
				c0,0.3,0.1,0.6,0.2,0.8c0.1,0.2,0.3,0.3,0.5,0.3C75.4,80.7,75.6,80.5,75.7,80.1z M75.7,79c0-0.3-0.1-0.6-0.2-0.7
				c-0.1-0.2-0.3-0.2-0.4-0.2c-0.2,0-0.3,0.1-0.5,0.3c-0.1,0.2-0.2,0.4-0.2,0.7H75.7z"/>
			<path class="st8" d="M82,81.5h-0.8v-0.6c-0.1,0.2-0.3,0.4-0.5,0.5c-0.2,0.1-0.4,0.2-0.6,0.2c-0.4,0-0.7-0.2-0.9-0.6
				c-0.3-0.4-0.4-0.9-0.4-1.6c0-0.7,0.1-1.3,0.4-1.6s0.6-0.5,1-0.5c0.2,0,0.3,0,0.5,0.1c0.2,0.1,0.3,0.2,0.4,0.4v-2.1H82V81.5z
				 M79.7,79.3c0,0.4,0,0.7,0.1,0.8c0.1,0.2,0.1,0.3,0.3,0.4c0.1,0.1,0.2,0.1,0.4,0.1c0.2,0,0.4-0.1,0.5-0.3c0.1-0.2,0.2-0.5,0.2-1
				c0-0.5-0.1-0.8-0.2-1c-0.1-0.2-0.3-0.3-0.5-0.3c-0.2,0-0.4,0.1-0.5,0.3C79.8,78.5,79.7,78.9,79.7,79.3z"/>
			<path class="st8" d="M82.8,77.7l-0.2-1.1v-1h0.9v1l-0.1,1.1H82.8z"/>
			<path class="st8" d="M88.4,81.5h-1L87,80.1h-1.8l-0.4,1.3h-1l1.7-5.8h1L88.4,81.5z M86.7,79.2L86.1,77l-0.6,2.1H86.7z"/>
			<path class="st8" d="M88.8,81.5v-5.8h0.9v2.1c0.1-0.2,0.3-0.3,0.4-0.4c0.2-0.1,0.3-0.1,0.5-0.1c0.4,0,0.7,0.2,1,0.5
				c0.3,0.4,0.4,0.9,0.4,1.6c0,0.7-0.1,1.3-0.4,1.6c-0.3,0.4-0.6,0.6-1,0.6c-0.2,0-0.4-0.1-0.5-0.2c-0.2-0.1-0.3-0.3-0.5-0.5v0.6
				H88.8z M89.7,79.3c0,0.4,0,0.6,0.1,0.8c0.1,0.2,0.2,0.3,0.3,0.4c0.1,0.1,0.2,0.1,0.4,0.1c0.2,0,0.3-0.1,0.5-0.3
				c0.1-0.2,0.2-0.5,0.2-1c0-0.5-0.1-0.8-0.2-1c-0.1-0.2-0.3-0.3-0.5-0.3c-0.2,0-0.4,0.1-0.5,0.3C89.7,78.5,89.7,78.8,89.7,79.3z"/>
			<path class="st8" d="M92.7,76.7v-1h0.9v1H92.7z M92.7,81.5v-4.2h0.9v4.2H92.7z"/>
			<path class="st8" d="M97.4,81.5h-0.8v-0.6c-0.1,0.2-0.3,0.4-0.5,0.5c-0.2,0.1-0.4,0.2-0.6,0.2c-0.4,0-0.7-0.2-0.9-0.6
				c-0.3-0.4-0.4-0.9-0.4-1.6c0-0.7,0.1-1.3,0.4-1.6s0.6-0.5,1-0.5c0.2,0,0.3,0,0.5,0.1c0.2,0.1,0.3,0.2,0.4,0.4v-2.1h0.9V81.5z
				 M95.1,79.3c0,0.4,0,0.7,0.1,0.8s0.1,0.3,0.3,0.4c0.1,0.1,0.2,0.1,0.4,0.1c0.2,0,0.4-0.1,0.5-0.3c0.1-0.2,0.2-0.5,0.2-1
				c0-0.5-0.1-0.8-0.2-1C96.2,78.1,96,78,95.8,78c-0.2,0-0.4,0.1-0.5,0.3C95.2,78.5,95.1,78.9,95.1,79.3z"/>
			<path class="st8" d="M99.1,77.3v4.1c0,0.6,0,1-0.1,1.2c-0.1,0.2-0.2,0.4-0.3,0.5c-0.2,0.1-0.3,0.2-0.6,0.2c-0.2,0-0.4,0-0.6-0.1
				l0.1-0.9c0.1,0,0.2,0,0.2,0c0.1,0,0.3-0.1,0.3-0.2c0-0.1,0-0.3,0-0.7v-4H99.1z M98.2,76.7v-1h0.9v1H98.2z"/>
			<path class="st8" d="M100.6,78.5l-0.8-0.2c0.1-0.4,0.2-0.7,0.5-0.9c0.2-0.2,0.5-0.3,0.9-0.3c0.4,0,0.6,0.1,0.8,0.2
				c0.2,0.1,0.3,0.3,0.4,0.4c0.1,0.2,0.1,0.5,0.1,1l0,1.3c0,0.4,0,0.6,0,0.8s0.1,0.4,0.2,0.6h-0.8l-0.1-0.5
				c-0.1,0.2-0.3,0.3-0.5,0.4c-0.2,0.1-0.3,0.1-0.5,0.1c-0.3,0-0.6-0.1-0.8-0.3c-0.2-0.2-0.3-0.5-0.3-0.9c0-0.2,0-0.4,0.1-0.6
				c0.1-0.2,0.2-0.3,0.3-0.4c0.1-0.1,0.4-0.2,0.7-0.3c0.4-0.1,0.7-0.2,0.8-0.3c0-0.2,0-0.4,0-0.5c0-0.1-0.1-0.1-0.2-0.2
				c-0.1,0-0.2-0.1-0.4-0.1c-0.2,0-0.3,0-0.4,0.1C100.7,78.2,100.7,78.3,100.6,78.5z M101.7,79.4c-0.1,0-0.3,0.1-0.5,0.2
				c-0.3,0.1-0.4,0.2-0.5,0.2c-0.1,0.1-0.1,0.2-0.1,0.3c0,0.2,0,0.3,0.1,0.4s0.2,0.2,0.3,0.2c0.1,0,0.2,0,0.4-0.1
				c0.1-0.1,0.2-0.2,0.2-0.3c0-0.1,0.1-0.3,0.1-0.7V79.4z"/>
			<path class="st8" d="M106.4,81.5h-0.9v-2.1c0-0.4,0-0.7,0-0.9c0-0.1-0.1-0.3-0.2-0.3c-0.1-0.1-0.2-0.1-0.3-0.1
				c-0.1,0-0.3,0-0.4,0.1c-0.1,0.1-0.2,0.2-0.2,0.4s-0.1,0.5-0.1,1v1.9h-0.9v-4.2h0.8v0.6c0.1-0.2,0.3-0.4,0.5-0.5
				c0.2-0.1,0.4-0.2,0.6-0.2c0.3,0,0.5,0.1,0.6,0.2c0.2,0.1,0.3,0.3,0.4,0.5c0.1,0.2,0.1,0.5,0.1,0.9V81.5z"/>
		</g>
	</g>
</g>
</svg>
